<svg width="21" height="19" viewBox="0 0 21 19" fill="none" xmlns="http://www.w3.org/2000/svg">
<path fill-rule="evenodd" clip-rule="evenodd" d="M11.84 0.789114C11.2459 -0.263037 9.75409 -0.263038 9.16001 0.789113L0.207687 16.6443C-0.384193 17.6926 0.359509 19 1.54767 19H19.4523C20.6405 19 21.3842 17.6926 20.7923 16.6443L11.84 0.789114ZM9.041 9.49277L9.50075 13.277H11.2376L11.6803 9.49277V6.63672H9.041V9.49277ZM10.3692 16.8185C10.7665 16.8185 11.107 16.6995 11.3908 16.4615C11.6746 16.2235 11.8165 15.9379 11.8165 15.6047C11.8165 15.2715 11.6746 14.9859 11.3908 14.7479C11.107 14.5099 10.7665 14.3909 10.3692 14.3909C9.97185 14.3909 9.6313 14.5099 9.3475 14.7479C9.0637 14.9859 8.9218 15.2715 8.9218 15.6047C8.9218 15.9379 9.0637 16.2235 9.3475 16.4615C9.6313 16.6995 9.97185 16.8185 10.3692 16.8185Z" fill="#2E2E2E"/>
</svg>
