<svg width="24" height="22" viewBox="0 0 24 22" fill="none" xmlns="http://www.w3.org/2000/svg">
<path d="M23.5219 18.2192H20.9641V9.32673H22.1594V15.255C22.1594 15.5191 22.3734 15.7331 22.6374 15.7331C22.9014 15.7331 23.1155 15.5191 23.1155 15.255V9.32673H23.5219C23.7859 9.32673 24 9.1127 24 8.84866C24 8.58461 23.7859 8.37058 23.5219 8.37058H18.8366V1.43828C18.8366 1.17424 18.6225 0.960205 18.3585 0.960205H5.64145C5.37745 0.960205 5.16337 1.17424 5.16337 1.43828V8.37053H0.478078C0.214078 8.37053 0 8.58461 0 8.84866C0 9.1127 0.214078 9.32673 0.478078 9.32673H0.884438V18.2192H0.478078C0.214078 18.2192 0 18.4332 0 18.6972V20.5618C0 20.8258 0.214078 21.0399 0.478078 21.0399H23.5219C23.7859 21.0399 24 20.8258 24 20.5618V18.6972C24 18.4332 23.7859 18.2192 23.5219 18.2192ZM18.8367 9.32673H20.008V18.2192H18.8367V9.32673ZM6.11953 1.91636H17.8805V8.37053H16.7301V3.63747C16.7301 3.37342 16.516 3.15939 16.252 3.15939H7.74797C7.48397 3.15939 7.26989 3.37342 7.26989 3.63747V8.37053H6.11953V1.91636ZM17.8805 9.32673V18.2192H16.7301V9.32673H17.8805ZM12.4542 8.37053V4.11555H15.7739V8.37053H12.4542ZM15.7739 9.32673V18.2192H14.6055V9.32673H15.7739ZM13.6494 9.32673V18.2192H12.4542V9.32673H13.6494ZM8.22609 8.37053V4.11555H11.498V8.37053H8.22609ZM11.498 9.32673V18.2192H10.3506V9.32673H11.498ZM9.39441 9.32673V18.2192H8.22609V9.32673H9.39441ZM6.11953 9.32673H7.26989V18.2192H6.11953V9.32673ZM3.9442 9.32673H5.16333V18.2192H3.9442V9.32673ZM1.84064 9.32673H2.98805V18.2192H1.84064V9.32673ZM23.0438 20.0837H0.956156V19.1754H23.0438V20.0837H23.0438Z" fill="#2E2E2E"/>
<path d="M22.6382 16.3066C22.3742 16.3066 22.1602 16.5207 22.1602 16.7847V17.1194C22.1602 17.3834 22.3742 17.5974 22.6382 17.5974C22.9022 17.5974 23.1163 17.3834 23.1163 17.1194V16.7847C23.1163 16.5207 22.9022 16.3066 22.6382 16.3066Z" fill="#2E2E2E"/>
</svg>
