<svg width="38" height="24" viewBox="0 0 38 24" fill="none" xmlns="http://www.w3.org/2000/svg">
<path opacity="0.3" d="M6 11.1094H2C1.44772 11.1094 1 11.5571 1 12.1094V14.8169L1 22.1094C1 22.6617 1.44772 23.1094 2 23.1094H6.25H32.5H36C36.5523 23.1094 37 22.6617 37 22.1094V14.8169V12.1094C37 11.5571 36.5523 11.1094 36 11.1094H32M6 11.1094C6 9.34193 6 4.27228 6 2.10808C6 1.55579 6.44772 1.10938 7 1.10938H19M6 11.1094C11.6626 11.1094 13.3374 11.1094 19 11.1094M6 11.1094V15.1094C6 15.6617 6.44772 16.1094 7 16.1094H31C31.5523 16.1094 32 15.6617 32 15.1094V11.1094M32 11.1094C32 11.1094 25.0531 11.1094 19 11.1094M32 11.1094V2.10938C32 1.55709 31.5523 1.10938 31 1.10938H19M19 1.10938V11.1094M19 1.10938V10.879" stroke="#2E2E2E"/>
</svg>
