<svg width="37" height="26" viewBox="0 0 37 26" fill="none" xmlns="http://www.w3.org/2000/svg">
<path d="M4 11.1143H2C1.44772 11.1143 1 11.5621 1 12.1143V14.1094M4 11.1143V2.10937C4 1.55709 4.44772 1.10938 5 1.10938H32C32.5523 1.10938 33 1.55709 33 2.10938V11.1143M4 11.1143H7M33 11.1143H35C35.5523 11.1143 36 11.5621 36 12.1143V14.1094M33 11.1143H30M7 11.1143C7 9.87583 7 7.46874 7 6.1084C7 5.55612 7.44772 5.10938 8 5.10938H16C16.5523 5.10938 17 5.55709 17 6.10938V11.1143M7 11.1143H17M17 11.1143H30M20 11.1739V6.10938C20 5.55709 20.4477 5.10938 21 5.10938H29C29.5523 5.10938 30 5.55709 30 6.10938V11.1143M1 14.1094V22.1094C1 22.6617 1.44772 23.1094 2 23.1094H7M1 14.1094H36M36 14.1094V22.1094C36 22.6617 35.5523 23.1094 35 23.1094H31M31 23.1094V25.1094M31 23.1094H7M7 23.1094V25.1094" stroke="#2E2E2E"/>
</svg>
