<svg width="45" height="45" viewBox="0 0 45 45" fill="none" xmlns="http://www.w3.org/2000/svg">
<path d="M21.7307 39.9697H17.0011L17.5004 37.8546L20.5108 39.3598L21.7307 39.9697ZM27.9989 39.9697H23.2694L24.4892 39.3598L27.4996 37.8546L27.9989 39.9697Z" stroke="url(#paint0_linear)" stroke-width="3"/>
<path d="M12.5343 14.7193L12.5342 14.7192L12.5343 14.7193ZM12.5343 14.7193C12.5343 14.7193 12.5343 14.7193 12.5343 14.7193L12.5343 14.7193Z" stroke="url(#paint1_linear)" stroke-width="3"/>
<mask id="path-3-inside-1" fill="white">
<path d="M12.0259 22.6201L16.2622 24.7382C16.9133 25.0639 17.7054 24.7999 18.031 24.1487C18.3567 23.4974 18.0927 22.7056 17.4415 22.38L13.2051 20.2618C12.5541 19.9362 11.762 20.2001 11.4363 20.8514C11.1107 21.5026 11.3747 22.2944 12.0259 22.6201Z"/>
</mask>
<path d="M16.2622 24.7382L17.6042 22.0551L17.6039 22.055L16.2622 24.7382ZM17.4415 22.38L18.7833 19.6968L18.7831 19.6967L17.4415 22.38ZM13.2051 20.2618L11.8632 22.9449L11.8635 22.9451L13.2051 20.2618ZM11.4363 20.8514L14.1196 22.1932L14.1196 22.193L11.4363 20.8514ZM10.6843 25.3034L14.9206 27.4215L17.6039 22.055L13.3676 19.9368L10.6843 25.3034ZM14.9203 27.4214C17.0534 28.4882 19.6477 27.6236 20.7143 25.4903L15.3478 22.807C15.7631 21.9763 16.7732 21.6395 17.6042 22.0551L14.9203 27.4214ZM20.7143 25.4903C21.781 23.3569 20.916 20.7633 18.7833 19.6968L16.0997 25.0632C15.2693 24.6479 14.9323 23.6379 15.3478 22.807L20.7143 25.4903ZM18.7831 19.6967L14.5468 17.5785L11.8635 22.9451L16.0998 25.0632L18.7831 19.6967ZM14.5471 17.5787C12.414 16.5118 9.81969 17.3765 8.75306 19.5097L14.1196 22.193C13.7043 23.0237 12.6942 23.3605 11.8632 22.9449L14.5471 17.5787ZM8.75314 19.5096C7.68627 21.643 8.55143 24.2368 10.6841 25.3033L13.3677 19.9369C14.198 20.3521 14.5352 21.3621 14.1196 22.1932L8.75314 19.5096Z" fill="url(#paint2_linear)" mask="url(#path-3-inside-1)"/>
<mask id="path-5-inside-2" fill="white">
<path d="M12.0259 29.5041L16.2622 31.6222C16.9133 31.9479 17.7054 31.6839 18.031 31.0327C18.3567 30.3814 18.0927 29.5896 17.4415 29.2639L13.2051 27.1457C12.5541 26.8201 11.762 27.084 11.4363 27.7353C11.1107 28.3866 11.3747 29.1784 12.0259 29.5041Z"/>
</mask>
<path d="M16.2622 31.6222L17.6042 28.9391L17.6039 28.939L16.2622 31.6222ZM17.4415 29.2639L18.7835 26.5808L18.7831 26.5806L17.4415 29.2639ZM13.2051 27.1457L11.8632 29.8288L11.8635 29.829L13.2051 27.1457ZM10.6843 32.1874L14.9206 34.3055L17.6039 28.939L13.3676 26.8208L10.6843 32.1874ZM14.9203 34.3054C17.0534 35.3722 19.6477 34.5076 20.7143 32.3743L15.3478 29.691C15.7631 28.8603 16.7732 28.5235 17.6042 28.9391L14.9203 34.3054ZM20.7143 32.3743C21.7811 30.2408 20.9159 27.6474 18.7835 26.5808L16.0994 31.9469C15.2694 31.5318 14.9323 30.522 15.3478 29.691L20.7143 32.3743ZM18.7831 26.5806L14.5468 24.4624L11.8635 29.829L16.0998 31.9472L18.7831 26.5806ZM14.5471 24.4626C12.414 23.3957 9.81969 24.2604 8.75306 26.3936L14.1196 29.0769C13.7043 29.9076 12.6941 30.2444 11.8632 29.8288L14.5471 24.4626ZM8.75306 26.3936C7.6864 28.527 8.5513 31.1207 10.6841 32.1873L13.3677 26.8209C14.1982 27.2362 14.535 28.2461 14.1196 29.0769L8.75306 26.3936Z" fill="url(#paint3_linear)" mask="url(#path-5-inside-2)"/>
<path d="M32.4663 14.7193C32.4663 14.7193 32.4662 14.7193 32.4662 14.7193L32.4663 14.7193Z" stroke="url(#paint4_linear)" stroke-width="3"/>
<mask id="path-8-inside-3" fill="white">
<path d="M31.7955 20.2617L27.5591 22.3798C26.9079 22.7055 26.6439 23.4974 26.9696 24.1486C27.2952 24.7998 28.0872 25.0639 28.7384 24.7381L32.9747 22.62C33.626 22.2943 33.8899 21.5024 33.5643 20.8513C33.2386 20.2 32.4466 19.936 31.7955 20.2617Z"/>
</mask>
<path d="M31.7955 20.2617L33.1371 22.945L33.1374 22.9448L31.7955 20.2617ZM27.5591 22.3798L28.9008 25.0631H28.9008L27.5591 22.3798ZM26.9696 24.1486L29.6528 22.8069L29.6528 22.8068L26.9696 24.1486ZM28.7384 24.7381L27.3967 22.0548L27.3963 22.0551L28.7384 24.7381ZM32.9747 22.62L31.633 19.9367L31.633 19.9367L32.9747 22.62ZM33.5643 20.8513L30.881 22.1929L30.881 22.193L33.5643 20.8513ZM30.4538 17.5784L26.2175 19.6966L28.9008 25.0631L33.1371 22.945L30.4538 17.5784ZM26.2175 19.6966C24.0843 20.7632 23.2196 23.3571 24.2864 25.4903L29.6528 22.8068C30.0683 23.6376 29.7314 24.6478 28.9008 25.0631L26.2175 19.6966ZM24.2863 25.4902C25.3528 27.6232 27.9469 28.4884 30.0804 27.4212L27.3963 22.0551C28.2275 21.6393 29.2376 21.9765 29.6528 22.8069L24.2863 25.4902ZM30.08 27.4214L34.3163 25.3032L31.633 19.9367L27.3967 22.0548L30.08 27.4214ZM34.3163 25.3032C36.4495 24.2367 37.3142 21.6427 36.2475 19.5095L30.881 22.193C30.4656 21.3622 30.8024 20.352 31.633 19.9367L34.3163 25.3032ZM36.2475 19.5096C35.1809 17.3764 32.5867 16.5117 30.4535 17.5785L33.1374 22.9448C32.3064 23.3604 31.2963 23.0236 30.881 22.1929L36.2475 19.5096Z" fill="url(#paint5_linear)" mask="url(#path-8-inside-3)"/>
<path d="M32.4663 28.4875C32.4663 28.4875 32.4662 28.4875 32.4662 28.4875L32.4663 28.4875Z" stroke="url(#paint6_linear)" stroke-width="3"/>
<defs>
<linearGradient id="paint0_linear" x1="22.5" y1="3.53015" x2="22.5" y2="41.4697" gradientUnits="userSpaceOnUse">
<stop stop-color="#F18D17"/>
<stop offset="1" stop-color="#FF4D00"/>
</linearGradient>
<linearGradient id="paint1_linear" x1="14.7337" y1="13.2382" x2="14.7337" y2="17.9937" gradientUnits="userSpaceOnUse">
<stop stop-color="#F18D17"/>
<stop offset="1" stop-color="#FF4D00"/>
</linearGradient>
<linearGradient id="paint2_linear" x1="14.7337" y1="20.1223" x2="14.7337" y2="24.8777" gradientUnits="userSpaceOnUse">
<stop stop-color="#F18D17"/>
<stop offset="1" stop-color="#FF4D00"/>
</linearGradient>
<linearGradient id="paint3_linear" x1="14.7337" y1="27.0062" x2="14.7337" y2="31.7617" gradientUnits="userSpaceOnUse">
<stop stop-color="#F18D17"/>
<stop offset="1" stop-color="#FF4D00"/>
</linearGradient>
<linearGradient id="paint4_linear" x1="30.2669" y1="13.2382" x2="30.2669" y2="17.9937" gradientUnits="userSpaceOnUse">
<stop stop-color="#F18D17"/>
<stop offset="1" stop-color="#FF4D00"/>
</linearGradient>
<linearGradient id="paint5_linear" x1="30.2669" y1="20.1222" x2="30.2669" y2="24.8777" gradientUnits="userSpaceOnUse">
<stop stop-color="#F18D17"/>
<stop offset="1" stop-color="#FF4D00"/>
</linearGradient>
<linearGradient id="paint6_linear" x1="30.2669" y1="27.0063" x2="30.2669" y2="31.7619" gradientUnits="userSpaceOnUse">
<stop stop-color="#F18D17"/>
<stop offset="1" stop-color="#FF4D00"/>
</linearGradient>
</defs>
</svg>
