<svg width="24" height="25" viewBox="0 0 24 25" fill="none" xmlns="http://www.w3.org/2000/svg">
<path d="M19.7541 15.3672C19.9338 15.3672 20.1138 15.3672 20.2918 15.3672C21.7876 15.3672 23 14.1546 23 12.6589V12.6589C23 11.1631 21.7874 9.95052 20.2917 9.95052H19.7541L15.1835 6.07824C14.6417 5.61915 13.9545 5.36719 13.2443 5.36719H7.67836C6.66232 5.36719 5.71532 5.88146 5.16209 6.73367L4.5905 7.61415C4.15067 8.29167 3.39779 8.70052 2.59003 8.70052V8.70052C1.71188 8.70052 1 9.4124 1 10.2905V13.3672C1 14.4718 1.89543 15.3672 3 15.3672H3.29167M15.2083 15.3672H7.5" stroke="#2E2E2E" stroke-linecap="round"/>
<path d="M12.4167 7.36719V9.36719C12.4167 9.91947 12.8644 10.3672 13.4167 10.3672H17M7.375 7.36719L6.6493 8.95053C6.34571 9.61292 6.82972 10.3672 7.55836 10.3672H10.125" stroke="#2E2E2E" stroke-linecap="round"/>
<circle cx="17.5" cy="15.8672" r="2" stroke="#2E2E2E"/>
<circle cx="5.5" cy="15.8672" r="2" stroke="#2E2E2E"/>
<line x1="1.5" y1="18.8672" x2="22.5" y2="18.8672" stroke="#2E2E2E" stroke-linecap="round"/>
</svg>
