<svg width="24" height="24" viewBox="0 0 24 24" fill="none" xmlns="http://www.w3.org/2000/svg">
<path d="M19.7541 15C19.9338 15 20.1138 15 20.2918 15C21.7876 15 23 13.7874 23 12.2917V12.2917C23 10.7959 21.7874 9.58333 20.2917 9.58333H19.7541L15.1835 5.71105C14.6417 5.25196 13.9545 5 13.2443 5H7.67836C6.66232 5 5.71532 5.51427 5.16209 6.36648L4.5905 7.24696C4.15067 7.92448 3.39779 8.33333 2.59003 8.33333V8.33333C1.71188 8.33333 1 9.04521 1 9.92336V13C1 14.1046 1.89543 15 3 15H3.29167M15.2083 15H7.5" stroke="#2E2E2E" stroke-linecap="round"/>
<path d="M12.4167 7V9C12.4167 9.55228 12.8644 10 13.4167 10H17M7.375 7L6.6493 8.58335C6.34571 9.24573 6.82972 10 7.55836 10H10.125" stroke="#2E2E2E" stroke-linecap="round"/>
<circle cx="17.5" cy="15.5" r="2" stroke="#2E2E2E"/>
<circle cx="5.5" cy="15.5" r="2" stroke="#2E2E2E"/>
<line x1="1.5" y1="18.5" x2="22.5" y2="18.5" stroke="#2E2E2E" stroke-linecap="round"/>
</svg>
