<svg width="20" height="20" viewBox="0 0 20 20"  stroke-opacity="0" fill="none" xmlns="http://www.w3.org/2000/svg">
<path  stroke-opacity="0" fill-rule="evenodd" clip-rule="evenodd" d="M0.398438 10.0001C0.398438 4.69806 4.69635 0.400146 9.99844 0.400146C15.3005 0.400146 19.5984 4.69806 19.5984 10.0001C19.5984 15.3022 15.3005 19.6001 9.99844 19.6001C4.69635 19.6001 0.398438 15.3022 0.398438 10.0001ZM9.99844 1.60015C7.77062 1.60015 5.63405 2.48514 4.05874 4.06045C2.48344 5.63576 1.59844 7.77233 1.59844 10.0001C1.59844 12.228 2.48344 14.3645 4.05874 15.9398C5.63405 17.5152 7.77062 18.4001 9.99844 18.4001C12.2263 18.4001 14.3628 17.5152 15.9381 15.9398C17.5134 14.3645 18.3984 12.228 18.3984 10.0001C18.3984 7.77233 17.5134 5.63576 15.9381 4.06045C14.3628 2.48514 12.2263 1.60015 9.99844 1.60015ZM9.39844 11.6001V5.40015H10.5984V10.4001H14.5984V11.6001H9.39844Z" fill="#2E2E2E"/>
<svg width="24" height="24" viewBox="0 0 24 24" fill="none" xmlns="http://www.w3.org/2000/svg">
<path stroke-opacity="0" stroke-width="0" stroke-opacity="0" stroke-width="0" fill-rule="evenodd" clip-rule="evenodd" d="M2.39844 12.0001C2.39844 6.69806 6.69635 2.40015 11.9984 2.40015C17.3005 2.40015 21.5984 6.69806 21.5984 12.0001C21.5984 17.3022 17.3005 21.6001 11.9984 21.6001C6.69635 21.6001 2.39844 17.3022 2.39844 12.0001ZM11.9984 3.60015C9.77062 3.60015 7.63405 4.48514 6.05874 6.06045C4.48344 7.63576 3.59844 9.77233 3.59844 12.0001C3.59844 14.228 4.48344 16.3645 6.05874 17.9398C7.63405 19.5152 9.77062 20.4001 11.9984 20.4001C14.2263 20.4001 16.3628 19.5152 17.9381 17.9398C19.5134 16.3645 20.3984 14.228 20.3984 12.0001C20.3984 9.77233 19.5134 7.63576 17.9381 6.06045C16.3628 4.48514 14.2263 3.60015 11.9984 3.60015ZM11.3984 13.6001V7.40015H12.5984V12.4001H16.5984V13.6001H11.3984Z" fill="#2E2E2E"/>
</svg>
