<svg width="24" height="25" viewBox="0 0 24 25" fill="none" xmlns="http://www.w3.org/2000/svg">
<path fill-rule="evenodd" clip-rule="evenodd" d="M2.39844 12.3673C2.39844 7.06525 6.69635 2.76733 11.9984 2.76733C17.3005 2.76733 21.5984 7.06525 21.5984 12.3673C21.5984 17.6694 17.3005 21.9673 11.9984 21.9673C6.69635 21.9673 2.39844 17.6694 2.39844 12.3673ZM11.9984 3.96733C9.77062 3.96733 7.63405 4.85233 6.05874 6.42764C4.48344 8.00294 3.59844 10.1395 3.59844 12.3673C3.59844 14.5952 4.48344 16.7317 6.05874 18.307C7.63405 19.8823 9.77062 20.7673 11.9984 20.7673C14.2263 20.7673 16.3628 19.8823 17.9381 18.307C19.5134 16.7317 20.3984 14.5952 20.3984 12.3673C20.3984 10.1395 19.5134 8.00294 17.9381 6.42764C16.3628 4.85233 14.2263 3.96733 11.9984 3.96733ZM11.3984 13.9673V7.76733H12.5984V12.7673H16.5984V13.9673H11.3984Z" fill="#2E2E2E"/>
</svg>
