<svg width="20" height="20" viewBox="0 0 20 20" fill="none" xmlns="http://www.w3.org/2000/svg">
<path fill-rule="evenodd" clip-rule="evenodd" d="M0.398438 10.0001C0.398438 4.69806 4.69635 0.400146 9.99844 0.400146C15.3005 0.400146 19.5984 4.69806 19.5984 10.0001C19.5984 15.3022 15.3005 19.6001 9.99844 19.6001C4.69635 19.6001 0.398438 15.3022 0.398438 10.0001ZM9.99844 1.60015C7.77062 1.60015 5.63405 2.48514 4.05874 4.06045C2.48344 5.63576 1.59844 7.77233 1.59844 10.0001C1.59844 12.228 2.48344 14.3645 4.05874 15.9398C5.63405 17.5152 7.77062 18.4001 9.99844 18.4001C12.2263 18.4001 14.3628 17.5152 15.9381 15.9398C17.5134 14.3645 18.3984 12.228 18.3984 10.0001C18.3984 7.77233 17.5134 5.63576 15.9381 4.06045C14.3628 2.48514 12.2263 1.60015 9.99844 1.60015ZM9.39844 11.6001V5.40015H10.5984V10.4001H14.5984V11.6001H9.39844Z" fill="#2E2E2E"/>
</svg>
