<svg width="24" height="24" viewBox="0 0 24 24" fill="none" xmlns="http://www.w3.org/2000/svg">
<path stroke-opacity="0" stroke-width="0" stroke-opacity="0" stroke-width="0" fill-rule="evenodd" clip-rule="evenodd" d="M2.39844 12.0001C2.39844 6.69806 6.69635 2.40015 11.9984 2.40015C17.3005 2.40015 21.5984 6.69806 21.5984 12.0001C21.5984 17.3022 17.3005 21.6001 11.9984 21.6001C6.69635 21.6001 2.39844 17.3022 2.39844 12.0001ZM11.9984 3.60015C9.77062 3.60015 7.63405 4.48514 6.05874 6.06045C4.48344 7.63576 3.59844 9.77233 3.59844 12.0001C3.59844 14.228 4.48344 16.3645 6.05874 17.9398C7.63405 19.5152 9.77062 20.4001 11.9984 20.4001C14.2263 20.4001 16.3628 19.5152 17.9381 17.9398C19.5134 16.3645 20.3984 14.228 20.3984 12.0001C20.3984 9.77233 19.5134 7.63576 17.9381 6.06045C16.3628 4.48514 14.2263 3.60015 11.9984 3.60015ZM11.3984 13.6001V7.40015H12.5984V12.4001H16.5984V13.6001H11.3984Z" fill="#2E2E2E"/>
</svg>
