<svg width="24" height="24" viewBox="0 0 24 24" fill="none" xmlns="http://www.w3.org/2000/svg">
<rect x="-0.5" y="-0.5" width="12" height="23" rx="2.5" transform="matrix(-1.63967e-08 -1 -1 8.67264e-09 23 14)" stroke="#2E2E2E" stroke-linecap="round"/>
<rect x="-0.5" y="-0.5" width="4" height="17" rx="0.5" transform="matrix(-1.63967e-08 -1 -1 8.67264e-09 20 14)" stroke="#2E2E2E" stroke-linecap="round"/>
<path d="M13 16.5C13 16.2239 12.7761 16 12.5 16C12.2239 16 12 16.2239 12 16.5H13ZM12 21C12 21.2761 12.2239 21.5 12.5 21.5C12.7761 21.5 13 21.2761 13 21H12ZM16.5 16.5C16.5 16.2239 16.2761 16 16 16C15.7239 16 15.5 16.2239 15.5 16.5H16.5ZM9.5 16.5C9.5 16.2239 9.27614 16 9 16C8.72386 16 8.5 16.2239 8.5 16.5H9.5ZM12 16.5V21H13V16.5H12ZM15.5 16.5V17.5H16.5V16.5H15.5ZM8.5 16.5V17.5H9.5V16.5H8.5ZM8.5 17.5C8.5 18.8807 7.38071 20 6 20V21C7.933 21 9.5 19.433 9.5 17.5H8.5ZM15.5 17.5C15.5 19.433 17.067 21 19 21V20C17.6193 20 16.5 18.8807 16.5 17.5H15.5Z" fill="#2E2E2E"/>
<line x1="19" y1="5" x2="21" y2="5" stroke="#2E2E2E" stroke-linecap="round"/>
<line x1="14.5" y1="5" x2="16.5" y2="5" stroke="#2E2E2E" stroke-linecap="round"/>
</svg>
