<svg width="27" height="16" viewBox="0 0 27 16" fill="none" xmlns="http://www.w3.org/2000/svg">
<path d="M16.4126 1.00432C17.1252 1.10507 17.823 1.28406 18.5125 1.49594C19.7162 1.8666 20.852 2.38153 21.9202 3.04955C21.9945 3.09565 22.0937 3.12492 22.1813 3.12492C23.436 3.1301 24.6902 3.12829 25.9438 3.12933C26.0448 3.12933 26.1453 3.13995 26.2461 3.14564C26.2461 3.17025 26.2497 3.18061 26.2456 3.18631C26.187 3.27645 26.1277 3.36529 26.0689 3.45517C25.6434 4.10791 25.2797 4.79069 25.065 5.54548C25.0417 5.62655 25.0367 5.69441 25.0916 5.77393C26.2085 7.37779 26.565 9.13862 26.0982 11.0367C25.689 12.7015 24.7347 13.9994 23.2847 14.9184C22.2484 15.5756 21.1035 15.8885 19.8804 15.8952C19.3665 15.8983 18.8552 15.8291 18.3532 15.6991C17.1301 15.3818 16.0816 14.7721 15.2175 13.8487C15.1035 13.7274 14.9963 13.6008 14.8748 13.4638C14.4179 14.1447 13.9682 14.8145 13.5077 15.502C13.049 14.8166 12.6055 14.1533 12.1631 13.4925C12.1326 13.5086 12.1238 13.5104 12.1178 13.5161C12.1077 13.5244 12.0991 13.5345 12.0911 13.544C11.046 14.7783 9.73118 15.5349 8.12939 15.7879C7.23836 15.9291 6.35587 15.8783 5.49048 15.6398C4.26402 15.3028 3.22171 14.6558 2.37964 13.701C1.55673 12.7675 1.0449 11.6838 0.852707 10.4516C0.632798 9.30154 0.900626 8.19267 0.967453 7.92355C1.1612 7.1413 1.49896 6.42304 1.96261 5.76254C1.99525 5.71565 2.00665 5.63276 1.9911 5.57682C1.80202 4.88342 1.47617 4.2527 1.09463 3.64866C0.997758 3.49506 0.881717 3.35286 0.774482 3.20548C0.774482 3.18864 0.774482 3.17129 0.774482 3.15419C0.795981 3.15678 0.817221 3.16093 0.838201 3.16093C2.12191 3.16144 3.40536 3.16196 4.68907 3.15937C4.74502 3.15937 4.80718 3.13632 4.85484 3.10575C5.75675 2.5271 6.71772 2.06863 7.72739 1.7117C8.4555 1.45475 9.19889 1.25427 9.95704 1.10741C10.6911 0.965462 11.4291 0.86548 12.1748 0.816266C13.9929 0.676395 15.446 0.868847 16.4126 1.00432ZM14.8033 9.48234C14.8033 12.3013 17.0905 14.6042 19.8993 14.5933C22.7188 14.5832 24.9956 12.345 24.9935 9.49503C24.9914 6.55799 22.6089 4.35009 19.79 4.40734C17.0071 4.4651 14.8287 6.70822 14.8033 9.48234ZM7.15935 4.38791C4.41736 4.36408 2.02659 6.65253 2.07451 9.56756C2.11906 12.286 4.35959 14.5905 7.21634 14.5659C10.0096 14.5421 12.2548 12.2611 12.26 9.49892C12.2644 6.66108 9.99175 4.38791 7.15935 4.38791ZM7.41216 3.05809C8.96111 3.15264 10.3217 3.69244 11.4713 4.73785C12.6185 5.78118 13.2906 7.08277 13.5349 8.61332C13.7862 7.1009 14.4407 5.81149 15.5664 4.77851C16.6939 3.7445 18.0364 3.20185 19.56 3.08711C17.752 2.28336 15.8456 1.94197 13.8833 1.90415C11.6531 1.86038 9.48381 2.18908 7.41216 3.05809Z" fill="#2E2E2E"/>
<path d="M19.8805 6.7661L19.8805 6.76601C18.4717 6.74136 17.2271 7.91076 17.2256 9.4193L19.8805 6.7661ZM19.8805 6.7661L19.8901 6.76608M19.8805 6.7661L19.8901 6.76608M19.8901 6.76608C21.3594 6.76369 22.5467 7.94641 22.5467 9.41138C22.5467 10.8849 21.3775 12.0235 20.0003 12.0759L20.0001 12.0759M19.8901 6.76608L20.0001 12.0759M20.0001 12.0759C18.4573 12.1351 17.2253 10.9079 17.2256 9.41958L20.0001 12.0759ZM19.8812 11.982C21.2931 11.9873 22.4476 10.8293 22.4469 9.41892V9.41881C22.446 8.00869 21.3059 6.85786 19.8976 6.85786C18.4834 6.85786 17.3265 7.99625 17.3207 9.40881L17.3207 9.40903C17.3156 10.8149 18.4742 11.978 19.8812 11.982ZM19.8812 11.982C19.8811 11.982 19.881 11.982 19.8809 11.982L19.8828 11.482L19.8814 11.982C19.8813 11.982 19.8812 11.982 19.8812 11.982Z" fill="white" stroke="#2E2E2E"/>
<path d="M7.09186 6.26611C8.83533 6.26429 10.2504 7.67233 10.246 9.41477C10.241 11.1784 8.85087 12.5013 7.24106 12.5746C5.40382 12.6585 3.92144 11.194 3.92481 9.4158C3.92844 7.61431 5.41315 6.23606 7.09186 6.26611ZM9.1472 9.41218C9.14383 8.26808 8.2186 7.35607 7.06363 7.35814C5.94958 7.36021 5.01607 8.30046 5.01866 9.41865C5.02151 10.5498 5.95398 11.4799 7.08875 11.4831C8.21653 11.4856 9.15004 10.5464 9.1472 9.41218Z" fill="#2E2E2E"/>
<path d="M19.8905 8.37305C20.4687 8.37253 20.9427 8.8468 20.9373 9.42157C20.9316 9.99763 20.4656 10.4644 19.897 10.4646C19.3116 10.4646 18.841 10.002 18.8423 9.42882C18.8433 8.8341 19.3005 8.37357 19.8905 8.37305Z" fill="#2E2E2E"/>
<path d="M7.08653 8.36328C7.67348 8.36276 8.14515 8.83159 8.14748 9.41672C8.14982 9.99693 7.67373 10.4733 7.08964 10.4746C6.49156 10.4759 6.03024 10.0138 6.03076 9.41258C6.03076 8.82227 6.49104 8.36406 7.08653 8.36328Z" fill="#2E2E2E"/>
</svg>
