<svg width="19" height="20" viewBox="0 0 19 20" fill="none" xmlns="http://www.w3.org/2000/svg">
<path d="M1.73536 0.867682C1.73536 0.388474 1.34689 0 0.867682 0C0.388474 0 0 0.388474 0 0.867682V18.2213C0 18.7005 0.388474 19.089 0.867682 19.089C1.34689 19.089 1.73536 18.7005 1.73536 18.2213V0.867682Z" fill="#7F7F7F"/>
<path fill-rule="evenodd" clip-rule="evenodd" d="M0.869828 1.73536C0.389435 1.73536 0 1.35023 0 0.867682C0 0.388474 0.389167 0 0.869828 0L9.54235 0C10.0227 0 10.4122 0.385133 10.4122 0.867682C10.4122 1.34689 10.023 1.73536 9.54235 1.73536H0.869828Z" fill="#7F7F7F"/>
<path d="M0.867682 17.3537C0.388474 17.3537 0 17.7422 0 18.2214C0 18.7006 0.388474 19.0891 0.867682 19.0891H9.5445C10.0237 19.0891 10.4122 18.7006 10.4122 18.2214C10.4122 17.7422 10.0237 17.3537 9.5445 17.3537H0.867682Z" fill="#7F7F7F"/>
<path fill-rule="evenodd" clip-rule="evenodd" d="M4.77102 10.4122C4.29342 10.4122 3.90625 10.0271 3.90625 9.54456C3.90625 9.06535 4.29658 8.67688 4.77102 8.67688H15.6229C16.1005 8.67688 16.4876 9.06201 16.4876 9.54456C16.4876 10.0238 16.0973 10.4122 15.6229 10.4122H4.77102Z" fill="#7F7F7F"/>
<path fill-rule="evenodd" clip-rule="evenodd" d="M17.4888 10.158L13.194 14.4528C12.8552 14.7916 12.3058 14.7916 11.9669 14.4528C11.6281 14.1139 11.6281 13.5645 11.9669 13.2257L15.6482 9.54443L11.9669 5.86317C11.6281 5.52432 11.6281 4.97494 11.9669 4.63608C12.3058 4.29723 12.8552 4.29723 13.194 4.63608L17.4888 8.93089C17.8277 9.26974 17.8277 9.81913 17.4888 10.158Z" fill="#7F7F7F"/>
</svg>
