<svg width="28" height="25" viewBox="0 0 28 25" fill="none" xmlns="http://www.w3.org/2000/svg">
<path d="M9.67383 22.2734C10.9582 23.1819 14.3603 24.4538 17.6938 22.2734" stroke="#2E2E2E" stroke-linecap="round"/>
<path d="M10.8652 19.9417C11.6797 20.5265 13.9728 21.3452 16.6296 19.9417" stroke="#2E2E2E" stroke-linecap="round"/>
<path d="M0.927161 11.2027L11.9808 12.7327C12.0994 12.7491 12.1519 12.891 12.0726 12.9807L10.5362 14.7184C10.5078 14.7506 10.4668 14.769 10.4239 14.769H3.72986C2.67723 14.7222 2.19723 14.168 2.01692 13.797L0.773685 11.4208C0.717147 11.3127 0.806353 11.1859 0.927161 11.2027Z" stroke="#2E2E2E"/>
<path d="M16.3326 12.2262L14.945 13.7563C14.8652 13.8443 14.9144 13.9856 15.0315 14.0051L26.0451 15.8362C26.163 15.8558 26.2553 15.7364 26.2068 15.6272L25.3927 13.797C24.884 12.5928 24.331 12.2307 23.7442 12.177H16.4437C16.4014 12.177 16.361 12.1949 16.3326 12.2262Z" stroke="#2E2E2E"/>
<path d="M13.5344 4.35226V10.7219M11.8399 1.38892L12.3595 3.9516C12.4067 4.18471 12.6117 4.35226 12.8495 4.35226H14.281C14.5169 4.35226 14.7208 4.18734 14.77 3.95661L15.3179 1.38892M10.3848 12.5137V11.2219C10.3848 10.9458 10.6086 10.7219 10.8848 10.7219H16.1127C16.3889 10.7219 16.6127 10.9458 16.6127 11.2219V12.0963M10.3848 14.4565V15.5098C10.3848 15.7859 10.6086 16.0098 10.8848 16.0098H11.1871H15.7976H16.1127C16.3889 16.0098 16.6127 15.7859 16.6127 15.5098V14.3476" stroke="#2E2E2E"/>
<path d="M15.6583 16.0098C15.6583 17.1033 14.6911 17.9897 13.4981 17.9897C12.305 17.9897 11.3379 17.1033 11.3379 16.0098" stroke="#2E2E2E"/>
</svg>
