<svg width="23" height="22" viewBox="0 0 23 22" fill="none" xmlns="http://www.w3.org/2000/svg">
<path d="M3.7332 3.99581C4.00935 3.99581 4.2332 3.77195 4.2332 3.49581C4.2332 3.21967 4.00935 2.99581 3.7332 2.99581V3.99581ZM5.48273 2.99581C5.20659 2.99581 4.98273 3.21967 4.98273 3.49581C4.98273 3.77195 5.20659 3.99581 5.48273 3.99581V2.99581ZM20.603 7.64149V20.5002H21.603V7.64149H20.603ZM2.62218 20.5002V7.47966H1.62218V20.5002H2.62218ZM1.6875 2.99581V1.5532H0.6875V2.99581H1.6875ZM1.6875 1.5532H21.3117V0.553204H1.6875V1.5532ZM21.3117 1.5532V2.99581H22.3117V1.5532H21.3117ZM4.28098 20.5002H2.62218V21.5002H4.28098V20.5002ZM4.28098 7.64149H18.9436V6.64149H4.28098V7.64149ZM18.9436 7.64149H20.603V6.64149H18.9436V7.64149ZM20.603 20.5002H18.9436V21.5002H20.603V20.5002ZM18.9436 20.5002H4.28098V21.5002H18.9436V20.5002ZM21.3117 2.99581H5.48273V3.99581H21.3117V2.99581ZM3.7332 2.99581H2.46035V3.99581H3.7332V2.99581ZM2.46035 2.99581H1.6875V3.99581H2.46035V2.99581ZM2.46035 7.64149H4.28098V6.64149H2.46035V7.64149ZM1.96035 3.49581V7.14149H2.96035V3.49581H1.96035ZM20.3854 3.4957V7.14138H21.3854V3.4957H20.3854ZM3.78098 7.14149V19.296H4.78098V7.14149H3.78098ZM3.78098 19.296V21.0002H4.78098V19.296H3.78098ZM18.4436 7.14149V19.296H19.4436V7.14149H18.4436ZM18.4436 19.296V21.0002H19.4436V19.296H18.4436ZM21.3117 2.99581V2.99581V3.99581C21.864 3.99581 22.3117 3.54809 22.3117 2.99581H21.3117ZM21.3117 1.5532V1.5532H22.3117C22.3117 1.00092 21.864 0.553204 21.3117 0.553204V1.5532ZM1.6875 1.5532V1.5532V0.553204C1.13521 0.553204 0.6875 1.00092 0.6875 1.5532H1.6875ZM0.6875 2.99581C0.6875 3.5481 1.13522 3.99581 1.6875 3.99581V2.99581H1.6875H0.6875ZM1.62218 20.5002C1.62218 21.0525 2.0699 21.5002 2.62218 21.5002V20.5002H2.62218H1.62218ZM20.603 20.5002V21.5002C21.1553 21.5002 21.603 21.0525 21.603 20.5002H20.603ZM21.603 7.64149C21.603 7.08921 21.1553 6.64149 20.603 6.64149V7.64149H21.603ZM2.62218 7.47966C2.62218 7.56904 2.54973 7.64149 2.46035 7.64149V6.64149C1.99744 6.64149 1.62218 7.01675 1.62218 7.47966H2.62218Z" fill="#2E2E2E"/>
<circle cx="18.3993" cy="5.06237" r="0.364132" fill="#2E2E2E"/>
<circle cx="17.1669" cy="5.69519" r="0.364132" fill="#2E2E2E"/>
<circle cx="5.20398" cy="5.37854" r="0.364132" fill="#2E2E2E"/>
<rect x="7.13867" y="18.1963" width="8.72168" height="1.87014" rx="0.935072" stroke="#2E2E2E"/>
<path d="M14.826 13.4057C14.6748 12.1754 13.5589 10.6084 13.5589 10.6084C13.2757 10.9278 12.8566 11.5266 12.8566 11.5266C12.6009 10.3426 11.4841 9.11523 11.4841 9.11523C10.444 9.93066 10.1721 11.6793 10.1721 11.6793C9.97011 11.3503 9.46963 10.6084 9.46963 10.6084C8.02887 12.0843 8.17823 14.3065 8.17823 14.3065C8.17823 16.1785 9.68589 17.6961 11.5457 17.6961C13.0625 17.6961 14.345 16.6867 14.7665 15.2988" stroke="#2E2E2E" stroke-miterlimit="10" stroke-linecap="round" stroke-linejoin="round"/>
</svg>
