<svg width="24" height="24" viewBox="0 0 24 24" fill="none" xmlns="http://www.w3.org/2000/svg">
<path d="M7 23L7 10"  stroke-width="2"/>
<path d="M10 6.5C10 8.54698 8.54938 10 7 10C5.45062 10 4 8.54698 4 6.5C4 4.45302 5.45062 3 7 3C8.54938 3 10 4.45302 10 6.5Z"  stroke-width="2"/>
<path d="M18 23L18 10"  stroke-width="2"/>
<path d="M18 8L18 2"  stroke-width="2"/>
<path d="M21 2C21 2.47494 20.9167 7.44299 20.7571 7.87656C20.5975 8.31008 20.366 8.69694 20.081 9.01761C19.7962 9.33806 19.4644 9.58509 19.1083 9.75104C18.7527 9.91677 18.3765 10 18 10C17.6235 10 17.2473 9.91677 16.8916 9.75104C16.5355 9.58509 16.2038 9.33806 15.919 9.01761C15.6339 8.69694 15.4025 8.31008 15.2429 7.87656C15.0832 7.44299 15 2.47494 15 2"  stroke-width="2"/>
</svg>
