<svg width="24" height="24" viewBox="0 0 24 24" fill="none" xmlns="http://www.w3.org/2000/svg">
<path d="M12.0013 5.48496C10.8443 4.47586 9.35317 3.9469 7.82695 4.00421C6.30072 4.06153 4.85238 4.70088 3.77253 5.79397C2.69459 6.88475 2.06316 8.34711 2.00449 9.88869C1.94581 11.4303 2.46421 12.9375 3.45604 14.1089L12 22L20.5446 14.1089C21.537 12.9365 22.0551 11.4279 21.9953 9.88522C21.9356 8.34256 21.3023 6.87968 20.2222 5.78945C19.1422 4.69922 17.6951 4.0621 16.1707 4.00564C14.6464 3.94918 13.1571 4.47754 12.0013 5.48496ZM12.0013 5.48496L8.82111 8.41362C7.83727 9.3108 7.77947 10.9036 8.69541 11.878C9.51415 12.7491 10.8262 12.8121 11.7161 12.0232L13.2857 10.6316L18.5156 16.1691"  stroke-width="2"/>
</svg>
