<svg width="19" height="18" viewBox="0 0 19 18" fill="none" xmlns="http://www.w3.org/2000/svg">
<path d="M9.36074 1.93862C11.7423 1.93862 12.0245 1.94742 12.9649 1.98924C13.8347 2.02774 14.3068 2.16895 14.6212 2.28765C15.0375 2.44484 15.3346 2.63267 15.6466 2.93587C15.9588 3.23906 16.1522 3.52787 16.3139 3.93231C16.436 4.23777 16.5813 4.69669 16.621 5.54167C16.6639 6.45552 16.6729 6.72967 16.6729 9.044C16.6729 11.3581 16.6639 11.6322 16.621 12.5461C16.5813 13.3912 16.4359 13.8501 16.3139 14.1554C16.1521 14.56 15.9588 14.8487 15.6466 15.152C15.3346 15.4552 15.0375 15.6432 14.6212 15.8004C14.3068 15.9191 13.8347 16.0601 12.9649 16.0988C12.0246 16.1405 11.7425 16.1493 9.36074 16.1493C6.97901 16.1493 6.69686 16.1405 5.75654 16.0988C4.88681 16.0601 4.41467 15.9189 4.10032 15.8004C3.68396 15.643 3.38688 15.4552 3.07486 15.152C2.76269 14.8487 2.56925 14.56 2.40761 14.1554C2.28546 13.8501 2.14014 13.3912 2.10052 12.5461C2.05761 11.6322 2.04856 11.3581 2.04856 9.044C2.04856 6.72967 2.05748 6.45552 2.10052 5.54167C2.14014 4.69669 2.2856 4.23777 2.40761 3.93231C2.56938 3.52787 2.76269 3.23906 3.07486 2.93587C3.38688 2.63267 3.68396 2.44471 4.10032 2.28765C4.41467 2.16882 4.88681 2.02774 5.75654 1.98924C6.69714 1.94742 6.97915 1.93862 9.36074 1.93862ZM9.36074 0.376953C6.93829 0.376953 6.63463 0.386944 5.68334 0.429173C4.73383 0.471135 4.0855 0.617804 3.5182 0.831879C2.93172 1.05341 2.43421 1.34982 1.93834 1.83165C1.44261 2.31349 1.13757 2.79679 0.909587 3.36668C0.68914 3.91805 0.538347 4.54802 0.495025 5.47053C0.451704 6.39491 0.441406 6.69011 0.441406 9.044C0.441406 11.3978 0.451567 11.693 0.495025 12.6173C0.538347 13.5399 0.68914 14.1698 0.909587 14.7212C1.13757 15.291 1.44261 15.7744 1.93834 16.2562C2.43421 16.7381 2.93172 17.0345 3.5182 17.2559C4.0855 17.4701 4.73383 17.6166 5.68334 17.6587C6.63463 17.7008 6.93829 17.7109 9.36074 17.7109C11.7832 17.7109 12.0868 17.7009 13.0381 17.6587C13.9877 17.6166 14.6358 17.4701 15.2033 17.2559C15.7897 17.0345 16.2873 16.7381 16.783 16.2562C17.2789 15.7744 17.5839 15.2911 17.8119 14.7212C18.0323 14.1698 18.1831 13.5399 18.2265 12.6173C18.2698 11.693 18.2801 11.3978 18.2801 9.044C18.2801 6.69011 18.2699 6.39491 18.2265 5.47053C18.1831 4.54802 18.0323 3.91805 17.8119 3.36668C17.5839 2.79679 17.2789 2.31349 16.783 1.83165C16.2873 1.34982 15.7897 1.05341 15.2033 0.831879C14.6358 0.617804 13.9877 0.471135 13.0381 0.429173C12.0868 0.386944 11.7832 0.376953 9.36074 0.376953Z" fill="#2E2E2E"/>
<path d="M9.36055 4.5918C6.83091 4.5918 4.78027 6.5844 4.78027 9.04245C4.78027 11.5004 6.83091 13.493 9.36055 13.493C11.8901 13.493 13.9408 11.5004 13.9408 9.04245C13.9408 6.5844 11.8901 4.5918 9.36055 4.5918ZM9.36055 11.9313C7.71845 11.9313 6.38728 10.6378 6.38728 9.04231C6.38728 7.44655 7.71845 6.15319 9.36055 6.15319C11.0027 6.15319 12.3337 7.44655 12.3337 9.04231C12.3337 10.6378 11.0027 11.9313 9.36055 11.9313Z" fill="#2E2E2E"/>
<path d="M14.7029 4.41724C14.7029 4.70227 14.461 4.95753 14.1324 4.95753C13.8038 4.95753 13.562 4.70227 13.562 4.41724C13.562 4.13221 13.8038 3.87695 14.1324 3.87695C14.461 3.87695 14.7029 4.13221 14.7029 4.41724Z" fill="white" stroke="#2E2E2E"/>
</svg>
