<svg width="24" height="24" viewBox="0 0 24 24" fill="none" xmlns="http://www.w3.org/2000/svg">
<path d="M14.6016 8.34171V7.2859H18.7766V8.34171H14.6016Z" fill="#2E2E2E"/>
<path d="M14.6016 11.4812V10.4254H18.7766V11.4812H14.6016Z" fill="#2E2E2E"/>
<path fill-rule="evenodd" clip-rule="evenodd" d="M2.25528 3.25446C2.35236 3.15684 2.48353 3.1014 2.62064 3.09985H21.3849C21.6693 3.09985 21.9016 3.33227 21.9016 3.62043V20.3771C21.9002 20.5154 21.845 20.6475 21.7478 20.7452C21.6507 20.8429 21.5194 20.8984 21.3822 20.8999H2.61875C2.48169 20.8997 2.35019 20.8449 2.25318 20.7474C2.15615 20.6498 2.10156 20.5174 2.10156 20.3793V3.62254C2.10291 3.4843 2.15814 3.35216 2.25528 3.25446ZM11.4766 4.15567H3.15156V19.844H11.4766V4.15567ZM20.8516 4.15567H12.5266V19.844H20.8516V4.15567Z" fill="#2E2E2E"/>
</svg>
