<svg width="65" height="42" viewBox="0 0 65 42" fill="none" xmlns="http://www.w3.org/2000/svg">
<g clip-path="url(#clip0)">
<path fill-rule="evenodd" clip-rule="evenodd" d="M48.84 23.7891C48.2459 22.737 46.7541 22.737 46.16 23.7891L37.2077 39.6443C36.6158 40.6926 37.3595 42 38.5477 42H56.4523C57.6405 42 58.3842 40.6926 57.7923 39.6443L48.84 23.7891ZM46.041 32.4928L46.5007 36.277H48.2376L48.6803 32.4928V29.6367H46.041V32.4928ZM47.3692 39.8185C47.7665 39.8185 48.107 39.6995 48.3908 39.4615C48.6746 39.2235 48.8165 38.9379 48.8165 38.6047C48.8165 38.2715 48.6746 37.9859 48.3908 37.7479C48.107 37.5099 47.7665 37.3909 47.3692 37.3909C46.9719 37.3909 46.6313 37.5099 46.3475 37.7479C46.0637 37.9859 45.9218 38.2715 45.9218 38.6047C45.9218 38.9379 46.0637 39.2235 46.3475 39.4615C46.6313 39.6995 46.9719 39.8185 47.3692 39.8185Z" fill="#2E2E2E"/>
<path d="M31.9492 19.2587C33.2001 21.8768 32.8732 25.054 31.1443 28.1419C29.417 31.227 26.3263 34.1363 22.2546 36.0818C18.1829 38.0272 13.9776 38.6037 10.4922 38.0092C7.00371 37.4142 4.32652 35.6723 3.07561 33.0542C1.82469 30.4361 2.1516 27.2589 3.88049 24.171C5.60781 21.0859 8.69848 18.1766 12.7702 16.2312C16.8419 14.2857 21.0472 13.7092 24.5326 14.3037C28.0211 14.8987 30.6983 16.6406 31.9492 19.2587Z" stroke="url(#paint0_linear)" stroke-width="2"/>
<path d="M27.478 19.1786C28.507 21.3323 28.3351 23.8841 27.1012 26.3169C25.8667 28.7509 23.5877 31.0119 20.5303 32.4726C17.473 33.9334 14.2821 34.2859 11.6129 33.717C8.94505 33.1485 6.85178 31.6789 5.82276 29.5252C4.79375 27.3715 4.96566 24.8197 6.19952 22.387C7.434 19.953 9.71304 17.692 12.7704 16.2312C15.8277 14.7705 19.0186 14.418 21.6878 14.9868C24.3557 15.5554 26.4489 17.0249 27.478 19.1786Z" stroke="url(#paint1_linear)" stroke-width="2"/>
<path d="M13.0762 11.2587C11.8253 13.8768 12.1522 17.054 13.8811 20.1419C15.6084 23.227 18.6991 26.1363 22.7708 28.0818C26.8425 30.0272 31.0478 30.6037 34.5331 30.0092C38.0217 29.4142 40.6989 27.6723 41.9498 25.0542C43.2007 22.4361 42.8738 19.2589 41.1449 16.171C39.4176 13.0859 36.3269 10.1766 32.2552 8.23116C28.1835 6.28574 23.9782 5.70918 20.4928 6.30367C17.0043 6.8987 14.3271 8.64058 13.0762 11.2587Z" fill="white" stroke="url(#paint2_linear)" stroke-width="2"/>
<path d="M17.5474 11.1786C16.5184 13.3323 16.6903 15.8841 17.9242 18.3169C19.1587 20.7509 21.4377 23.0119 24.495 24.4726C27.5524 25.9334 30.7433 26.2859 33.4125 25.717C36.0803 25.1485 38.1736 23.6789 39.2026 21.5252C40.2316 19.3715 40.0597 16.8197 38.8259 14.387C37.5914 11.953 35.3124 9.692 32.255 8.23123C29.1977 6.77047 26.0068 6.41798 23.3376 6.98682C20.6697 7.55538 18.5764 9.02491 17.5474 11.1786Z" fill="white" stroke="url(#paint3_linear)" stroke-width="2"/>
</g>
<defs>
<linearGradient id="paint0_linear" x1="12.3391" y1="15.3289" x2="22.6857" y2="36.9841" gradientUnits="userSpaceOnUse">
<stop stop-color="#F18D17"/>
<stop offset="1" stop-color="#FF4D00"/>
</linearGradient>
<linearGradient id="paint1_linear" x1="12.3393" y1="15.3289" x2="20.9615" y2="33.3749" gradientUnits="userSpaceOnUse">
<stop stop-color="#F18D17"/>
<stop offset="1" stop-color="#FF4D00"/>
</linearGradient>
<linearGradient id="paint2_linear" x1="32.6863" y1="7.32886" x2="22.3397" y2="28.9841" gradientUnits="userSpaceOnUse">
<stop stop-color="#F18D17"/>
<stop offset="1" stop-color="#FF4D00"/>
</linearGradient>
<linearGradient id="paint3_linear" x1="32.6861" y1="7.32893" x2="24.0639" y2="25.3749" gradientUnits="userSpaceOnUse">
<stop stop-color="#F18D17"/>
<stop offset="1" stop-color="#FF4D00"/>
</linearGradient>
<clipPath id="clip0">
<rect width="65" height="42" fill="white" transform="matrix(-1 0 0 1 65 0)"/>
</clipPath>
</defs>
</svg>
