<svg width="24" height="24" viewBox="0 0 24 24" fill="none" xmlns="http://www.w3.org/2000/svg">
<path d="M16 3.5C16 4.05062 15.6825 4.65136 14.9621 5.15564C14.2448 5.65771 13.2007 6 12 6C10.7993 6 9.75517 5.65771 9.03793 5.15564C8.31753 4.65136 8 4.05062 8 3.5C8 2.94938 8.31753 2.34864 9.03793 1.84436C9.75517 1.34229 10.7993 1 12 1C13.2007 1 14.2448 1.34229 14.9621 1.84436C15.6825 2.34864 16 2.94938 16 3.5Z"  stroke-width="2"/>
<path d="M18.4017 9.4986C18.5348 10.2248 18.1786 11.151 17.0973 12.0731C16.0367 12.9774 14.4154 13.7389 12.478 14.0792C10.5406 14.4194 8.75012 14.2571 7.43464 13.7701C6.09335 13.2736 5.43056 12.5263 5.2975 11.8001C5.16444 11.0739 5.5206 10.1477 6.60196 9.22566C7.66251 8.32135 9.28377 7.55984 11.2212 7.21957C13.1586 6.8793 14.9491 7.04159 16.2646 7.52859C17.6059 8.02515 18.2687 8.77242 18.4017 9.4986Z"  stroke-width="2"/>
<path d="M21.7955 19.035C21.7651 19.7643 21.0314 20.721 19.1109 21.5055C17.281 22.253 14.7077 22.684 11.8364 22.5692C8.9651 22.4544 6.43631 21.8193 4.67472 20.9282C2.82596 19.993 2.17444 18.9809 2.20486 18.2516C2.23529 17.5223 2.96895 16.5656 4.88945 15.7811C6.71941 15.0336 9.29268 14.6026 12.164 14.7174C15.0353 14.8323 17.5641 15.4673 19.3257 16.3584C21.1744 17.2937 21.8259 18.3057 21.7955 19.035Z"  stroke-width="2"/>
</svg>
