<svg width="49" height="39" viewBox="0 0 49 39" fill="none" xmlns="http://www.w3.org/2000/svg">
<path d="M27.478 19.1786C28.507 21.3323 28.3351 23.8841 27.1012 26.3169C25.8667 28.7509 23.5877 31.0119 20.5303 32.4726C17.473 33.9334 14.2821 34.2859 11.6129 33.717C8.94505 33.1485 6.85178 31.6789 5.82276 29.5252C4.79375 27.3715 4.96566 24.8197 6.19952 22.387C7.434 19.953 9.71304 17.692 12.7704 16.2312C15.8277 14.7705 19.0186 14.418 21.6878 14.9868C24.3557 15.5554 26.4489 17.0249 27.478 19.1786Z" stroke="url(#paint0_linear)" stroke-width="2"/>
<path d="M13.0762 11.2587C11.8253 13.8768 12.1522 17.054 13.8811 20.1419C15.6084 23.227 18.6991 26.1363 22.7708 28.0818C26.8425 30.0272 31.0478 30.6037 34.5331 30.0092C38.0217 29.4142 40.6989 27.6723 41.9498 25.0542C43.2007 22.4361 42.8738 19.2589 41.1449 16.171C39.4176 13.0859 36.3269 10.1766 32.2552 8.23116C28.1835 6.28574 23.9782 5.70918 20.4928 6.30367C17.0043 6.8987 14.3271 8.64058 13.0762 11.2587Z" fill="white" stroke="url(#paint1_linear)" stroke-width="2"/>
<path d="M17.5474 11.1786C16.5184 13.3323 16.6903 15.8841 17.9242 18.3169C19.1587 20.7509 21.4377 23.0119 24.495 24.4726C27.5524 25.9334 30.7433 26.2859 33.4125 25.717C36.0803 25.1485 38.1736 23.6789 39.2026 21.5252C40.2316 19.3715 40.0597 16.8197 38.8259 14.387C37.5914 11.953 35.3124 9.692 32.255 8.23123C29.1977 6.77047 26.0068 6.41798 23.3376 6.98682C20.6697 7.55538 18.5764 9.02491 17.5474 11.1786Z" fill="white" stroke="url(#paint2_linear)" stroke-width="2"/>
<defs>
<linearGradient id="paint0_linear" x1="12.3393" y1="15.3289" x2="20.9615" y2="33.3749" gradientUnits="userSpaceOnUse">
<stop stop-color="#F18D17"/>
<stop offset="1" stop-color="#FF4D00"/>
</linearGradient>
<linearGradient id="paint1_linear" x1="32.6863" y1="7.32886" x2="22.3397" y2="28.9841" gradientUnits="userSpaceOnUse">
<stop stop-color="#F18D17"/>
<stop offset="1" stop-color="#FF4D00"/>
</linearGradient>
<linearGradient id="paint2_linear" x1="32.6861" y1="7.32893" x2="24.0639" y2="25.3749" gradientUnits="userSpaceOnUse">
<stop stop-color="#F18D17"/>
<stop offset="1" stop-color="#FF4D00"/>
</linearGradient>
</defs>
</svg>
