<svg width="61" height="45" viewBox="0 0 61 45" fill="none" xmlns="http://www.w3.org/2000/svg">
<path d="M34.9492 19.2587C36.2001 21.8768 35.8732 25.054 34.1443 28.1419C32.417 31.227 29.3263 34.1363 25.2546 36.0818C21.1829 38.0272 16.9776 38.6037 13.4922 38.0092C10.0037 37.4142 7.32652 35.6723 6.07561 33.0542C4.82469 30.4361 5.1516 27.2589 6.88049 24.171C8.60781 21.0859 11.6985 18.1766 15.7702 16.2312C19.8419 14.2857 24.0472 13.7092 27.5326 14.3037C31.0211 14.8987 33.6983 16.6406 34.9492 19.2587Z" stroke-width="2"/>
<path d="M30.478 19.1786C31.507 21.3323 31.3351 23.8841 30.1012 26.3169C28.8667 28.7509 26.5877 31.0119 23.5303 32.4726C20.473 33.9334 17.2821 34.2859 14.6129 33.717C11.945 33.1485 9.85178 31.6789 8.82276 29.5252C7.79375 27.3715 7.96566 24.8197 9.19952 22.387C10.434 19.953 12.713 17.692 15.7704 16.2312C18.8277 14.7705 22.0186 14.418 24.6878 14.9868C27.3557 15.5554 29.4489 17.0249 30.478 19.1786Z" stroke-width="2"/>
<path d="M16.0762 11.2587C14.8253 13.8768 15.1522 17.054 16.8811 20.1419C18.6084 23.227 21.6991 26.1363 25.7708 28.0818C29.8425 30.0272 34.0478 30.6037 37.5331 30.0092C41.0217 29.4142 43.6989 27.6723 44.9498 25.0542C46.2007 22.4361 45.8738 19.2589 44.1449 16.171C42.4176 13.0859 39.3269 10.1766 35.2552 8.23116C31.1835 6.28574 26.9782 5.70918 23.4928 6.30367C20.0043 6.8987 17.3271 8.64058 16.0762 11.2587Z" fill="white"  stroke-width="2"/>
<path d="M20.5474 11.1786C19.5184 13.3323 19.6903 15.8841 20.9242 18.3169C22.1587 20.7509 24.4377 23.0119 27.495 24.4726C30.5524 25.9334 33.7433 26.2859 36.4125 25.717C39.0803 25.1485 41.1736 23.6789 42.2026 21.5252C43.2316 19.3715 43.0597 16.8197 41.8259 14.387C40.5914 11.953 38.3124 9.692 35.255 8.23123C32.1977 6.77047 29.0068 6.41798 26.3376 6.98682C23.6697 7.55538 21.5764 9.02491 20.5474 11.1786Z" fill="white" stroke-width="2"/>

</svg>
