<svg width="40" height="40" viewBox="0 0 40 40" fill="none" xmlns="http://www.w3.org/2000/svg">
<path fill-rule="evenodd" clip-rule="evenodd" d="M3 20C3 29.3738 10.6262 37 20 37C29.3738 37 37 29.3738 37 20C37 10.6262 29.3738 3 20 3C10.6262 3 3 10.6262 3 20ZM5.55 20C5.55 12.0321 12.0321 5.55 20 5.55C27.9679 5.55 34.45 12.0321 34.45 20C34.45 27.9679 27.9679 34.45 20 34.45C12.0321 34.45 5.55 27.9679 5.55 20Z" />
<path fill-rule="evenodd" clip-rule="evenodd" d="M19 1.2C19 0.5376 19.448 0 20 0C20.552 0 21 0.5376 21 1.2V6.8C21 7.4624 20.552 8 20 8C19.448 8 19 7.4624 19 6.8V1.2Z"/>
<path fill-rule="evenodd" clip-rule="evenodd" d="M33.2 19C32.5376 19 32 19.448 32 20C32 20.552 32.5376 21 33.2 21H38.8C39.4624 21 40 20.552 40 20C40 19.448 39.4624 19 38.8 19H33.2Z"/>
<path fill-rule="evenodd" clip-rule="evenodd" d="M19 33.2C19 32.5376 19.448 32 20 32C20.552 32 21 32.5376 21 33.2V38.8C21 39.4624 20.552 40 20 40C19.448 40 19 39.4624 19 38.8V33.2Z"/>
<path fill-rule="evenodd" clip-rule="evenodd" d="M1.2 19C0.5376 19 0 19.448 0 20C0 20.552 0.5376 21 1.2 21H6.8C7.4624 21 8 20.552 8 20C8 19.448 7.4624 19 6.8 19H1.2Z" />
<path fill-rule="evenodd" clip-rule="evenodd" d="M15 20C15 22.7567 17.2433 25 20 25C22.7567 25 25 22.7567 25 20C25 17.2433 22.7567 15 20 15C17.2433 15 15 17.2433 15 20ZM17.5 20C17.5 18.6217 18.6217 17.5 20 17.5C21.3783 17.5 22.5 18.6217 22.5 20C22.5 21.3783 21.3783 22.5 20 22.5C18.6217 22.5 17.5 21.3783 17.5 20Z" />

</svg>
