<svg width="25" height="24" viewBox="0 0 25 24" fill="none" xmlns="http://www.w3.org/2000/svg">
<rect x="4" y="12.5" width="17" height="2" rx="1" stroke="#2E2E2E" stroke-linecap="round"/>
<path d="M6 9C6 5.41015 8.91015 2.5 12.5 2.5C16.0899 2.5 19 5.41015 19 9V12.5H6V9Z" stroke="#2E2E2E"/>
<path d="M17 17C17 17.2761 17.2239 17.5 17.5 17.5C17.7761 17.5 18 17.2761 18 17H17ZM17 20C17 20.2761 17.2239 20.5 17.5 20.5C17.7761 20.5 18 20.2761 18 20H17ZM17 23C17 23.2761 17.2239 23.5 17.5 23.5C17.7761 23.5 18 23.2761 18 23H17ZM12 17C12 17.2761 12.2239 17.5 12.5 17.5C12.7761 17.5 13 17.2761 13 17H12ZM12 20C12 20.2761 12.2239 20.5 12.5 20.5C12.7761 20.5 13 20.2761 13 20H12ZM12 23C12 23.2761 12.2239 23.5 12.5 23.5C12.7761 23.5 13 23.2761 13 23H12ZM7 17C7 17.2761 7.22386 17.5 7.5 17.5C7.77614 17.5 8 17.2761 8 17H7ZM7 20C7 20.2761 7.22386 20.5 7.5 20.5C7.77614 20.5 8 20.2761 8 20H7ZM7 23C7 23.2761 7.22386 23.5 7.5 23.5C7.77614 23.5 8 23.2761 8 23H7ZM17 16V17H18V16H17ZM17 19V20H18V19H17ZM17 22V23H18V22H17ZM12 16V17H13V16H12ZM12 19V20H13V19H12ZM12 22V23H13V22H12ZM7 16V17H8V16H7ZM7 19V20H8V19H7ZM7 22V23H8V22H7Z" fill="#2E2E2E"/>
<path d="M13.5 0L13.5 3M11.5 3L11.5 -8.74228e-08" stroke="#2E2E2E"/>
</svg>
