<svg width="38" height="24" viewBox="0 0 38 24" fill="none" xmlns="http://www.w3.org/2000/svg">
<path d="M6 10.7061H2C1.44772 10.7061 1 11.1538 1 11.7061V14.4136L1 21.7061C1 22.2583 1.44772 22.7061 2 22.7061H6.25H32.5H36C36.5523 22.7061 37 22.2583 37 21.7061V14.4136V11.7061C37 11.1538 36.5523 10.7061 36 10.7061H32M6 10.7061C6 8.93861 6 3.86896 6 1.70476C6 1.15247 6.44772 0.706055 7 0.706055H19M6 10.7061C11.6626 10.7061 13.3374 10.7061 19 10.7061M6 10.7061V14.7061C6 15.2583 6.44772 15.7061 7 15.7061H31C31.5523 15.7061 32 15.2583 32 14.7061V10.7061M32 10.7061C32 10.7061 25.0531 10.7061 19 10.7061M32 10.7061V1.70605C32 1.15377 31.5523 0.706055 31 0.706055H19M19 0.706055V10.7061M19 0.706055V10.4757" stroke="#2E2E2E"/>
</svg>
