<svg width="24" height="24" viewBox="0 0 24 24" fill="none" xmlns="http://www.w3.org/2000/svg">
<path d="M19 21.5C20.3807 21.5 21.5 20.3807 21.5 19L21.5 16.5L21.5 8L21.5 5C21.5 3.61929 20.3807 2.5 19 2.5L5 2.5C3.61929 2.5 2.5 3.61929 2.5 5L2.5 19C2.5 20.3807 3.61929 21.5 5 21.5L19 21.5Z" stroke="#2E2E2E" stroke-linecap="round"/>
<rect x="-0.5" y="-0.5" width="15" height="15" rx="1.5" transform="matrix(-1.63967e-08 -1 -1 8.67264e-09 19 19)" stroke="#2E2E2E" stroke-linecap="round"/>
<path d="M16.5 12C16.5 13.1518 16.0679 14.2015 15.3563 14.9977C14.5315 15.9204 13.3338 16.5 12 16.5C10.6662 16.5 9.4685 15.9204 8.64374 14.9977C7.93206 14.2015 7.5 13.1518 7.5 12C7.5 9.51472 9.51472 7.5 12 7.5C14.4853 7.5 16.5 9.51472 16.5 12Z" stroke="#2E2E2E"/>
</svg>
