<svg width="24" height="25" viewBox="0 0 24 25" fill="none" xmlns="http://www.w3.org/2000/svg">
<path d="M2.7 21.3672V16.8672M2.7 16.8672L2 11.8935M2.7 16.8672H6.16667C6.44281 16.8672 6.66667 17.091 6.66667 17.3672V21.3672M9.7 21.3672V14.4988M9.7 14.4988H7.6H12.5M9.7 14.4988H12.5M17.1667 14.4988H15.5333M15.5333 14.4988V21.3672M15.5333 14.4988H12.5M18.5667 21.3672V17.3672C18.5667 17.091 18.7905 16.8672 19.0667 16.8672H22.3M22.3 16.8672V21.3672M22.3 16.8672L23 11.8935M12.5 14.4988V9.0514M12.5 9.0514H19.4647C19.9609 9.0514 20.1541 8.40665 19.7396 8.13379L12.775 3.54822C12.6081 3.43837 12.3919 3.43837 12.225 3.54822L5.26036 8.13379C4.84593 8.40665 5.03913 9.0514 5.53532 9.0514H12.5Z" stroke="#2E2E2E" stroke-linecap="round"/>
</svg>
