<svg width="23" height="20" viewBox="0 0 23 20" fill="none" xmlns="http://www.w3.org/2000/svg">
<path d="M1.7 19.3672V14.8672M1.7 14.8672L1 9.8935M1.7 14.8672H5.16667C5.44281 14.8672 5.66667 15.091 5.66667 15.3672V19.3672M8.7 19.3672V12.4988M8.7 12.4988H6.6H11.5M8.7 12.4988H11.5M16.1667 12.4988H14.5333M14.5333 12.4988V19.3672M14.5333 12.4988H11.5M17.5667 19.3672V15.3672C17.5667 15.091 17.7905 14.8672 18.0667 14.8672H21.3M21.3 14.8672V19.3672M21.3 14.8672L22 9.8935M11.5 12.4988V7.0514M11.5 7.0514H18.4647C18.9609 7.0514 19.1541 6.40665 18.7396 6.13379L11.775 1.54822C11.6081 1.43837 11.3919 1.43837 11.225 1.54822L4.26036 6.13379C3.84593 6.40665 4.03913 7.0514 4.53532 7.0514H11.5Z" stroke-linecap="round"/>
</svg>
