<svg width="24" height="25" viewBox="0 0 24 25" fill="none" xmlns="http://www.w3.org/2000/svg">
<path d="M6.70507 15.1461C7.41373 14.4167 8.24969 13.8438 9.16522 13.4602C10.0808 13.0765 11.0579 12.8896 12.0409 12.9102C13.024 12.9307 13.9936 13.1583 14.8944 13.5798C15.7953 14.0014 16.6097 14.6087 17.2912 15.3672M4.38428 12.7042C5.35136 11.5606 6.53532 10.6511 7.85706 10.0363C9.1788 9.42152 10.6079 9.11568 12.0489 9.1392C13.4899 9.16271 14.9096 9.51504 16.2132 10.1727C17.5169 10.8303 18.6744 11.778 19.6084 12.9526M2 10.3937C3.21579 8.7993 4.75228 7.51928 6.49485 6.64913C8.23741 5.77899 10.1411 5.34119 12.0638 5.36838C13.9865 5.39558 15.8787 5.88707 17.5992 6.80619C19.3197 7.72532 20.824 9.04835 22 10.6766" stroke="#2E2E2E" stroke-linecap="round"/>
<circle cx="12" cy="18.3672" r="1.5" stroke="#2E2E2E"/>
</svg>
