<svg width="24" height="24" viewBox="0 0 24 24" fill="none" xmlns="http://www.w3.org/2000/svg">
<path d="M6.70507 14.7789C7.41373 14.0495 8.24969 13.4766 9.16522 13.093C10.0808 12.7094 11.0579 12.5225 12.0409 12.543C13.024 12.5635 13.9936 12.7911 14.8944 13.2126C15.7953 13.6342 16.6097 14.2416 17.2912 15M4.38428 12.337C5.35136 11.1934 6.53532 10.2839 7.85706 9.66911C9.1788 9.05434 10.6079 8.74849 12.0489 8.77201C13.4899 8.79552 14.9096 9.14785 16.2132 9.80546C17.5169 10.4631 18.6744 11.4108 19.6084 12.5854M2 10.0265C3.21579 8.43211 4.75228 7.15209 6.49485 6.28195C8.23741 5.4118 10.1411 4.974 12.0638 5.00119C13.9865 5.02839 15.8787 5.51988 17.5992 6.43901C19.3197 7.35813 20.824 8.68116 22 10.3094" stroke="#2E2E2E" stroke-linecap="round"/>
<circle cx="12" cy="18" r="1.5" stroke="#2E2E2E"/>
</svg>
