<svg width="144" height="136" viewBox="0 0 144 136" fill="none" xmlns="http://www.w3.org/2000/svg">
<g clip-path="url(#clip0)">
<path d="M85.3047 80.8606C86.2214 77.0805 88.3783 73.4922 91.6945 70.8352C95.0107 68.1782 98.9201 66.836 102.776 66.7812C101.859 70.5887 99.702 74.1496 96.3858 76.8066C93.0695 79.491 89.1601 80.8332 85.3047 80.8606Z" fill="white"/>
<path d="M139.416 36.3769L79.4813 57.5781C75.3023 59.0572 68.4272 59.0572 64.2212 57.5781L4.58295 36.4042C0.376992 34.9251 -1.24068 36.2399 0.97014 39.3352L36.2894 85.2164C35.6153 80.6419 34.3482 75.2731 36.2354 68.2061L46.9391 97.8713L47.0739 97.7892C50.9832 95.543 54.6769 92.9134 57.6696 90.7769L59.7996 89.2977L68.9394 82.258C78.5916 74.561 90.6163 65.0012 101.374 61.3034C110.46 58.1807 119.357 58.1533 126.259 61.0568L142.975 39.3352C145.24 36.2399 143.595 34.8977 139.416 36.3769Z" fill="#FF4D00"/>
<path d="M82.5016 120.853C81.8006 121.483 81.2883 121.948 81.2883 121.948C76.5701 126.002 71.744 129.317 66.918 131.946L67.9964 133.672C70.2072 136.767 73.82 136.767 76.0309 133.672L83.9844 120.853H82.5016Z" fill="#272425"/>
<path d="M83.956 120.853L85.7624 117.922C84.7649 118.826 83.4438 120.004 82.4731 120.853H83.956Z" fill="#272425"/>
<path d="M40.4691 131.289C33.3513 131.398 26.638 128.467 22.432 123.427C20.4369 121.044 18.1991 117.209 18.1991 112.06C18.1991 111.567 18.2261 111.019 18.28 110.498C18.6575 105.869 20.1673 101.213 22.7286 97.8983C22.8095 99.0213 22.9443 100.117 23.2678 101.048C24.9394 106.061 27.9591 108.28 30.1969 109.238C34.295 110.992 39.3637 110.362 45.9153 107.294C45.9962 107.54 46.0501 107.759 46.1579 108.006L46.4545 108.691L46.9398 109.211C47.9643 110.334 49.1237 111.375 50.256 112.361C51.0649 113.073 51.7928 113.731 52.4129 114.361C52.386 114.717 52.359 115.128 52.332 115.456C52.2781 116.086 52.1972 116.799 52.1972 117.511C52.1972 118.661 52.359 119.894 52.8982 121.126L53.0061 121.373L54.2733 123.427C55.2169 124.961 56.1336 126.44 56.8885 127.92C51.4962 130.029 45.9692 131.207 40.4691 131.289ZM136.775 78.3132C132.757 62.4534 117.255 59.3581 102.453 64.453C88.3253 69.2739 70.9623 85.5446 61.6606 92.0364C58.5871 94.173 53.788 97.7613 48.7192 100.692C39.9838 105.732 30.4126 108.882 27.2851 99.4596C26.2336 96.2822 27.4468 88.5577 31.2484 88.4755C21.1649 88.722 15.0446 98.8844 14.074 110.088C12.8338 124.496 25.209 136.247 40.55 136C48.6923 135.891 56.0527 133.727 62.6043 130.577C68.9671 127.536 74.5211 123.51 79.2394 119.456C89.3768 110.718 100.08 98.8296 105.661 102.993C105.661 102.993 117.066 110.225 98.975 123.92L99.002 124.222C104.179 125.4 109.706 123.263 114.235 120.716C117.929 118.634 121.569 116.196 124.48 112.854C130.25 106.171 134.618 99.9527 136.883 91.1051C137.61 88.229 137.503 81.2167 136.775 78.3132Z" fill="#FF4D00"/>
<path d="M59.4235 80.8606C58.5068 77.0805 56.3499 73.4922 53.0337 70.8352C49.7175 68.1782 45.8081 66.836 41.9526 66.7812C42.8693 70.5887 45.0532 74.1496 48.3424 76.8066C51.6317 79.491 55.5681 80.8332 59.4235 80.8606Z" fill="white"/>
<path d="M48.8555 68.1514C48.8555 68.1514 51.1741 75.2732 51.956 76.0402C52.7379 74.068 53.358 68.8635 53.358 68.8635L48.8555 68.1514Z" fill="#FF4D00"/>
<path d="M78.4572 6.629C74.2782 5.09506 70.0722 5.23202 66.0281 5.86203C65.1653 6.02638 63.6824 6.65639 63.0084 6.65639C62.5231 6.16334 62.1187 5.67029 62.2265 5.39637C63.9251 5.39637 64.4373 5.01289 65.4349 3.58852C67.0526 3.58852 68.4006 5.6429 70.7463 3.25982L70.935 3.20503C72.2561 4.54723 74.3321 4.95811 76.1116 3.61591C77.3518 4.24592 76.8934 5.12246 79.5626 5.45116C79.293 5.9716 78.9155 6.51944 78.4572 6.629ZM77.1631 8.65599L77.0283 8.68338C76.3273 8.49164 75.6532 8.2999 74.9792 8.13555L74.9522 7.9712C75.4645 7.45075 75.114 7.12205 75.114 6.73857C75.4375 6.73857 76.9474 6.9577 77.5944 7.39597C77.3518 7.72467 77.0552 7.91641 77.1631 8.65599ZM71.5821 6.68379L71.4203 6.38248C71.9595 6.27291 73.0919 6.21813 73.9277 6.57422C73.9007 7.03988 73.8738 7.47815 73.8199 7.9712L73.6581 7.99859C72.9301 7.91641 72.1752 7.86163 71.4473 7.80685C71.609 7.34119 71.609 6.98509 71.5821 6.68379ZM70.234 7.86163C69.5061 7.88902 68.7511 7.94381 68.0232 8.02598C67.8614 7.53293 67.7266 7.03988 67.6188 6.57422C68.3467 6.40987 69.2634 6.40987 70.1801 6.35508L70.2879 6.49204C69.7487 7.12205 70.4227 7.45075 70.234 7.86163ZM70.6654 9.66949C68.832 9.66949 67.3492 9.39557 65.9202 9.31339L65.8663 9.23122C67.0256 8.65599 74.5478 8.08076 75.7071 9.25861C75.2758 9.66949 71.0429 9.66949 70.6654 9.66949ZM64.0869 7.47815C64.0869 7.03988 66.0011 6.82074 66.5403 6.73857C66.5673 7.20423 66.6212 7.66989 66.6751 8.16294C66.3786 8.46425 64.707 8.6286 64.4913 8.65599C64.3834 8.08076 64.4643 7.6425 64.0869 7.47815ZM79.967 3.78026C79.6705 5.53333 77.0552 4.27331 77.0552 3.28721C78.9425 2.6572 77.2979 1.72588 77.2979 1.64371C77.5136 0.109768 74.6826 1.15065 75.7071 2.93112C75.0062 4.35549 71.8786 3.6433 71.5282 2.49285C72.6336 1.94501 72.1752 1.12326 71.4203 0.821953C71.3664 0.575427 71.2855 0.30151 71.2585 0.0275925C70.4497 -0.0545828 70.261 -0.109366 70.261 0.794561C69.2095 1.50675 69.2364 1.69849 70.1801 2.68459C69.533 3.99939 66.4864 3.91722 65.9741 2.87633C66.9987 2.02719 66.2977 1.47935 65.4349 1.39718C64.68 -0.3285 62.6309 3.25982 64.6261 3.25982C64.6261 4.46505 62.5501 4.90332 61.7682 4.49245C61.6334 3.25982 61.0942 2.79416 60.2853 3.58852C59.4765 3.75287 58.4789 2.87633 58.1284 3.61591C58.2632 3.91722 61.4716 6.13595 62.4153 7.47815C64.3834 11.2582 65.5158 10.4912 70.234 10.7104C72.4718 10.6556 75.5723 10.7104 77.9449 9.91601C78.4302 8.90252 78.9155 7.58771 79.5356 6.9577C80.0749 5.58812 83.2293 4.19114 83.2293 3.50634C82.6901 3.28721 80.1827 3.39678 79.967 3.78026Z" fill="#272425"/>
<path d="M65.355 5.23162L65.5976 5.56032C67.2153 5.23162 65.355 3.6429 65.355 5.23162Z" fill="#272425"/>
<path d="M75.7057 5.56062H75.9754C77.6739 4.43756 73.8993 4.32799 75.7057 5.56062Z" fill="#272425"/>
<path d="M71.071 4.05469L70.5587 4.10947C70.343 4.43817 70.1273 4.52035 70.6665 5.06818C71.3945 5.09557 71.4754 4.38339 71.071 4.05469Z" fill="#272425"/>
<path d="M30.1684 35.7464L26.987 25.6114L25.9355 25.9675L27.5801 34.5411C27.8228 35.6916 27.3375 36.8694 26.2051 37.2255L25.5311 37.4446L25.0188 35.7464L25.3423 35.6642C25.7737 35.5272 25.8276 35.1163 25.7468 34.7602L23.8325 24.7897L28.3081 23.3379L32.0287 35.1437L30.1684 35.7464Z" fill="#272425"/>
<path d="M40.8451 32.8696L39.2274 25.6656L38.5264 33.4175L36.5583 33.8831L33.7812 21.776L35.6685 21.3377L37.3132 28.5143L38.0142 20.7899L39.9823 20.3242L42.7324 32.404L40.8451 32.8696Z" fill="#272425"/>
<path d="M50.9844 31.1442L49.3398 31.3908C48.2074 31.5825 47.129 30.7608 46.9402 29.6103L45.673 21.2284C45.5113 20.0506 46.2932 18.9549 47.4255 18.7906L49.0702 18.5166C50.2025 18.3523 51.281 19.1467 51.4697 20.2971L51.7124 21.8584L49.7981 22.1597L49.6094 20.9545C49.5555 20.5984 49.2589 20.2697 48.8545 20.3519L48.1804 20.4615C47.7491 20.5436 47.5873 20.9271 47.6412 21.2832L48.8006 28.9529C48.8545 29.309 49.1241 29.6377 49.5555 29.5555L50.2295 29.4459C50.6609 29.3912 50.8227 28.9803 50.7687 28.6242L50.607 27.5833L52.5212 27.282L52.7369 28.6516C52.8987 29.8568 52.1168 30.9525 50.9844 31.1442Z" fill="#272425"/>
<path d="M62.8712 27.529L62.6016 24.379C62.4938 23.2011 61.4962 22.3246 60.3369 22.4342L58.5574 22.5985L58.153 17.6406L56.2388 17.805L57.2633 30.1587L60.957 29.8573C62.1163 29.7204 62.9791 28.7069 62.8712 27.529ZM60.93 27.3373C60.957 27.6934 60.7682 28.0769 60.3369 28.1043L59.0427 28.2138L58.7192 24.3242L60.0133 24.2146C60.4447 24.1873 60.7143 24.516 60.7143 24.872L60.93 27.3373Z" fill="#272425"/>
<path d="M73.0376 29.3919L72.8489 16.9834L69.1552 17.0382C67.9959 17.0656 67.0522 18.0243 67.0792 19.2021L67.1061 21.6674C67.1061 22.2974 67.3757 22.7631 67.8071 23.0644C67.3757 23.3657 67.1331 23.8313 67.1331 24.5161L67.214 29.474L69.1552 29.4466L69.1013 24.8448C69.1013 24.4613 69.317 24.1052 69.7483 24.1052L71.0155 24.0779L71.0964 29.3919H73.0376ZM70.9885 22.3248L69.7214 22.3522C69.29 22.3522 69.0743 21.9961 69.0473 21.64L69.0204 19.5308C69.0204 19.1747 69.2361 18.8186 69.6674 18.7913L70.9346 18.7639L70.9885 22.3248Z" fill="#272425"/>
<path d="M85.3063 29.994L85.7376 24.68L83.419 24.4882L82.9876 29.8022L81.0464 29.6379L82.0439 17.2842L83.9852 17.4211L83.5538 22.7351L85.8724 22.9269L86.3038 17.6403L88.2181 17.7772L87.2475 30.1583L85.3063 29.994Z" fill="#272425"/>
<path d="M97.9771 29.6925L99.2712 21.3106C99.46 20.1328 98.6781 19.0645 97.5187 18.8728L95.8741 18.5989C94.7417 18.4071 93.6633 19.2015 93.4746 20.3793L92.1804 28.7612C91.9917 29.9116 92.7736 31.0073 93.9329 31.1991L95.5775 31.4456C96.7099 31.6647 97.7884 30.8704 97.9771 29.6925ZM96.1168 29.0351C96.0628 29.3912 95.7663 29.6925 95.3619 29.6377L94.6878 29.5282C94.2565 29.446 94.0947 29.0625 94.1486 28.7064L95.3349 21.0367C95.3888 20.6806 95.6584 20.3519 96.0898 20.4341L96.7638 20.5437C97.1952 20.6258 97.357 21.0093 97.3031 21.3654L96.1168 29.0351Z" fill="#272425"/>
<path d="M109.515 26.9811L110.216 23.8858C110.485 22.7628 109.784 21.5849 108.652 21.3384L105.039 20.4893L102.262 32.569L104.149 33.0073L105.255 28.1589L106.98 28.5698C108.113 28.8437 109.245 28.1316 109.515 26.9811ZM107.708 26.1867C107.628 26.5428 107.331 26.8441 106.9 26.7346L105.632 26.4333L106.495 22.6258L107.762 22.9271C108.167 23.0093 108.328 23.4476 108.248 23.7763L107.708 26.1867Z" fill="#272425"/>
<path d="M118.439 37.0888L119.895 24.5434L117.307 23.7217L111.402 34.8427L113.236 35.4453L114.26 33.5279L116.822 34.3497L116.579 36.5136L118.439 37.0888ZM117.037 32.5692L115.123 31.9392L117.576 27.31L117.603 27.173L117.684 27.2004L117.63 27.3374L117.037 32.5692Z" fill="#272425"/>
<path d="M53.0604 121.373L52.9525 121.127C52.3863 119.894 52.2515 118.661 52.2515 117.511C52.2515 116.799 52.3055 116.087 52.3863 115.457C52.3863 115.128 52.4403 114.717 52.4672 114.361C51.8471 113.731 51.1192 113.073 50.3103 112.361C49.1779 111.375 48.0186 110.307 46.9941 109.211L46.5088 108.691L46.2122 108.006C46.1044 107.759 46.0774 107.54 45.9696 107.294C39.418 110.362 34.3493 110.992 30.2512 109.239C28.0134 108.28 24.9937 106.089 23.3221 101.048C22.9986 100.117 22.8638 99.0215 22.7829 97.8984C20.2216 101.24 18.7387 105.869 18.3343 110.499C18.2804 111.019 18.2534 111.567 18.2534 112.06C18.2534 117.237 20.4912 121.072 22.4594 123.428C26.6653 128.44 33.3787 131.371 40.4964 131.289C45.9965 131.207 51.5236 130.056 56.9428 127.92C56.1879 126.441 55.2712 124.962 54.3275 123.428L53.0604 121.373Z" fill="white"/>
</g>
<defs>
<clipPath id="clip0">
<rect width="144" height="136" fill="white"/>
</clipPath>
</defs>
</svg>
