<svg width="62" height="58" viewBox="0 0 62 58" fill="none" xmlns="http://www.w3.org/2000/svg">
<g clip-path="url(#clip0)">
<path d="M36.7285 34.4844C37.1232 32.8723 38.0519 31.342 39.4797 30.2089C40.9075 29.0758 42.5907 28.5033 44.2507 28.48C43.856 30.1037 42.9274 31.6224 41.4995 32.7555C40.0717 33.9003 38.3885 34.4727 36.7285 34.4844Z" fill="white"/>
<path d="M60.0264 15.5133L34.2211 24.555C32.4218 25.1858 29.4617 25.1858 27.6508 24.555L1.9732 15.525C0.162303 14.8941 -0.534196 15.4549 0.417685 16.7749L15.6246 36.3419C15.3344 34.391 14.7888 32.1014 15.6014 29.0875L20.2099 41.7389L20.2679 41.7038C21.9511 40.7459 23.5414 39.6245 24.83 38.7133L25.747 38.0825L29.6822 35.0802C33.838 31.7977 39.0153 27.7207 43.647 26.1437C47.559 24.812 51.3898 24.8003 54.3615 26.0386L61.5587 16.7749C62.5338 15.4549 61.8257 14.8825 60.0264 15.5133Z" fill="#FF4D00"/>
<path d="M35.5215 51.54C35.2197 51.8087 34.9991 52.0073 34.9991 52.0073C32.9677 53.7362 30.8898 55.1497 28.8119 56.2711L29.2762 57.0071C30.2281 58.3271 31.7836 58.3271 32.7355 57.0071L36.1599 51.54H35.5215Z" fill="#0D0D0D"/>
<path d="M36.1477 51.54L36.9255 50.29C36.496 50.6755 35.9272 51.1779 35.5093 51.54H36.1477Z" fill="#0D0D0D"/>
<path d="M17.4242 55.9905C14.3596 56.0372 11.4691 54.7873 9.65821 52.6378C8.79919 51.6215 7.8357 49.9861 7.8357 47.7899C7.8357 47.5796 7.84731 47.346 7.87053 47.124C8.03304 45.1498 8.68311 43.1639 9.7859 41.7504C9.82072 42.2294 9.87877 42.6966 10.0181 43.0938C10.7378 45.2316 12.0379 46.1778 13.0014 46.5867C14.7659 47.3343 16.9482 47.0656 19.769 45.7573C19.8039 45.8624 19.8271 45.9558 19.8735 46.061L20.0012 46.353L20.2102 46.575C20.6513 47.0539 21.1504 47.4978 21.638 47.9184C21.9862 48.2221 22.2997 48.5025 22.5666 48.7712C22.555 48.923 22.5434 49.0982 22.5318 49.2384C22.5086 49.5071 22.4738 49.8108 22.4738 50.1146C22.4738 50.6052 22.5434 51.1309 22.7756 51.6566L22.822 51.7617L23.3676 52.6378C23.7739 53.292 24.1686 53.9228 24.4936 54.5536C22.172 55.4531 19.7923 55.9554 17.4242 55.9905ZM58.8891 33.3979C57.1594 26.6342 50.4846 25.3142 44.1117 27.487C38.0289 29.543 30.5532 36.4819 26.5483 39.2505C25.225 40.1617 23.1587 41.692 20.9763 42.9419C17.2152 45.0914 13.0943 46.4348 11.7477 42.4163C11.295 41.0612 11.8174 37.7669 13.4541 37.7319C9.11262 37.837 6.47753 42.171 6.05963 46.9488C5.52565 53.0934 10.8539 58.1049 17.459 57.9998C20.9647 57.953 24.1338 57.0302 26.9546 55.6868C29.6942 54.3901 32.0855 52.6729 34.1169 50.944C38.4816 47.2175 43.0901 42.1476 45.4931 43.9232C45.4931 43.9232 50.4034 47.0072 42.6142 52.8481L42.6258 52.9766C44.8546 53.4789 47.2343 52.5677 49.1845 51.4813C50.7749 50.5935 52.342 49.5538 53.5957 48.1287C56.0798 45.2783 57.9604 42.6265 58.9355 38.8533C59.2489 37.6267 59.2025 34.6362 58.8891 33.3979Z" fill="#FF4D00"/>
<path d="M25.5852 34.4844C25.1905 32.8723 24.2618 31.342 22.834 30.2089C21.4062 29.0758 19.723 28.5033 18.063 28.48C18.4577 30.1037 19.3979 31.6224 20.8142 32.7555C22.2304 33.9003 23.9252 34.4727 25.5852 34.4844Z" fill="white"/>
<path d="M21.0349 29.0645C21.0349 29.0645 22.0332 32.1017 22.3699 32.4288C22.7065 31.5877 22.9735 29.3682 22.9735 29.3682L21.0349 29.0645Z" fill="#FF4D00"/>
<path d="M33.7801 2.82697C31.9808 2.17279 30.1699 2.2312 28.4287 2.49988C28.0572 2.56997 27.4188 2.83866 27.1286 2.83866C26.9196 2.62838 26.7455 2.41811 26.7919 2.30129C27.5233 2.30129 27.7438 2.13775 28.1733 1.5303C28.8698 1.5303 29.4502 2.40643 30.4602 1.39012L30.5414 1.36675C31.1102 1.93916 32.0041 2.11439 32.7702 1.54198C33.3042 1.81066 33.1068 2.18448 34.2561 2.32466C34.14 2.54661 33.9775 2.78025 33.7801 2.82697ZM33.2229 3.69142L33.1649 3.70311C32.8631 3.62133 32.5729 3.53956 32.2827 3.46947L32.271 3.39938C32.4916 3.17743 32.3407 3.03725 32.3407 2.8737C32.48 2.8737 33.1301 2.96715 33.4087 3.15406C33.3042 3.29424 33.1765 3.37602 33.2229 3.69142ZM30.82 2.85034L30.7504 2.72184C30.9825 2.67511 31.4701 2.65175 31.8299 2.80361C31.8183 3.0022 31.8067 3.18911 31.7835 3.39938L31.7139 3.41106C31.4004 3.37602 31.0754 3.35265 30.762 3.32929C30.8316 3.1307 30.8316 2.97884 30.82 2.85034ZM30.2396 3.35265C29.9262 3.36434 29.6011 3.3877 29.2877 3.42274C29.2181 3.21247 29.16 3.0022 29.1136 2.80361C29.427 2.73352 29.8217 2.73352 30.2164 2.71016L30.2628 2.76856C30.0306 3.03725 30.3209 3.17743 30.2396 3.35265ZM30.4253 4.12365C29.636 4.12365 28.9975 4.00683 28.3823 3.97179L28.359 3.93674C28.8582 3.69142 32.0969 3.44611 32.5961 3.94842C32.4103 4.12365 30.5878 4.12365 30.4253 4.12365ZM27.5929 3.18911C27.5929 3.0022 28.4171 2.90875 28.6493 2.8737C28.6609 3.07229 28.6841 3.27088 28.7073 3.48115C28.5796 3.60965 27.8599 3.67974 27.767 3.69142C27.7206 3.44611 27.7554 3.2592 27.5929 3.18911ZM34.4302 1.61207C34.3025 2.3597 33.1765 1.82234 33.1765 1.4018C33.9891 1.13312 33.281 0.735937 33.281 0.700891C33.3738 0.0467121 32.155 0.490619 32.5961 1.24993C32.2943 1.85739 30.9477 1.55366 30.7968 1.06303C31.2727 0.829391 31.0754 0.478938 30.7504 0.350438C30.7271 0.245302 30.6923 0.128485 30.6807 0.0116668C30.3325 -0.0233785 30.2512 -0.046742 30.2512 0.338756C29.7985 0.642482 29.8101 0.724255 30.2164 1.1448C29.9378 1.70552 28.626 1.67048 28.4055 1.22657C28.8466 0.864436 28.5448 0.630801 28.1733 0.595755C27.8483 -0.140196 26.9661 1.39012 27.8251 1.39012C27.8251 1.90411 26.9312 2.09102 26.5946 1.9158C26.5365 1.39012 26.3044 1.19153 25.9561 1.5303C25.6079 1.60039 25.1784 1.22657 25.0275 1.54198C25.0855 1.67048 26.4669 2.6167 26.8732 3.18911C27.7206 4.80119 28.2081 4.4741 30.2396 4.56756C31.2031 4.54419 32.538 4.56756 33.5596 4.22879C33.7685 3.79656 33.9775 3.23584 34.2445 2.96715C34.4766 2.38307 35.8348 1.7873 35.8348 1.49525C35.6026 1.4018 34.5231 1.44852 34.4302 1.61207Z" fill="white"/>
<path d="M28.139 2.23125L28.2435 2.37143C28.94 2.23125 28.139 1.5537 28.139 2.23125Z" fill="white"/>
<path d="M32.5956 2.37157H32.7116C33.443 1.89262 31.8178 1.84589 32.5956 2.37157Z" fill="white"/>
<path d="M30.6 1.729L30.3794 1.75237C30.2866 1.89255 30.1937 1.92759 30.4259 2.16123C30.7393 2.17291 30.7741 1.86919 30.6 1.729Z" fill="white"/>
<path d="M12.9891 15.2445L11.6193 10.9222L11.1666 11.0741L11.8747 14.7305C11.9791 15.2211 11.7702 15.7234 11.2826 15.8753L10.9924 15.9688L10.7719 15.2445L10.9112 15.2094C11.0969 15.151 11.1201 14.9758 11.0853 14.8239L10.2611 10.5718L12.1881 9.95264L13.79 14.9875L12.9891 15.2445Z" fill="white"/>
<path d="M17.5861 14.0177L16.8896 10.9454L16.5877 14.2514L15.7403 14.45L14.5447 9.28661L15.3573 9.09971L16.0654 12.1603L16.3672 8.86607L17.2146 8.66748L18.3986 13.8191L17.5861 14.0177Z" fill="white"/>
<path d="M21.9517 13.2822L21.2436 13.3873C20.7561 13.4691 20.2917 13.1186 20.2105 12.628L19.6649 9.05337C19.5952 8.55106 19.9319 8.08378 20.4194 8.01369L21.1275 7.89688C21.6151 7.82679 22.0794 8.16556 22.1607 8.65619L22.2652 9.32205L21.441 9.45055L21.3597 8.93655C21.3365 8.78469 21.2088 8.64451 21.0347 8.67955L20.7445 8.72628C20.5587 8.76133 20.4891 8.92487 20.5123 9.07673L21.0115 12.3476C21.0347 12.4995 21.1508 12.6397 21.3365 12.6046L21.6267 12.5579C21.8124 12.5345 21.8821 12.3593 21.8589 12.2074L21.7892 11.7635L22.6134 11.635L22.7063 12.2191C22.7759 12.7331 22.4393 13.2004 21.9517 13.2822Z" fill="white"/>
<path d="M27.0695 11.7401L26.9534 10.3967C26.907 9.89435 26.4775 9.52053 25.9783 9.56726L25.2122 9.63735L25.0381 7.52295L24.2139 7.59304L24.655 12.8615L26.2453 12.733C26.7445 12.6746 27.1159 12.2424 27.0695 11.7401ZM26.2337 11.6583C26.2453 11.8102 26.1641 11.9737 25.9783 11.9854L25.4211 12.0321L25.2818 10.3733L25.839 10.3266C26.0248 10.3149 26.1408 10.4551 26.1408 10.6069L26.2337 11.6583Z" fill="white"/>
<path d="M31.4467 12.5345L31.3654 7.24268L29.7751 7.26604C29.2759 7.27772 28.8696 7.68658 28.8812 8.1889L28.8928 9.24026C28.8928 9.50894 29.0089 9.70753 29.1946 9.83603C29.0089 9.96453 28.9044 10.1631 28.9044 10.4552L28.9393 12.5696L29.7751 12.5579L29.7518 10.5953C29.7518 10.4318 29.8447 10.2799 30.0304 10.2799L30.576 10.2683L30.6109 12.5345H31.4467ZM30.5644 9.52062L30.0188 9.5323C29.8331 9.5323 29.7402 9.38044 29.7286 9.22858L29.717 8.32908C29.717 8.17722 29.8099 8.02535 29.9956 8.01367L30.5412 8.00199L30.5644 9.52062Z" fill="white"/>
<path d="M36.7291 12.7914L36.9149 10.5252L35.9165 10.4434L35.7308 12.7097L34.895 12.6396L35.3245 7.37109L36.1603 7.4295L35.9746 9.69577L36.9729 9.77754L37.1586 7.52296L37.9828 7.58137L37.5649 12.8615L36.7291 12.7914Z" fill="white"/>
<path d="M42.1846 12.6627L42.7418 9.0881C42.8231 8.58579 42.4864 8.1302 41.9873 8.04842L41.2792 7.93161C40.7916 7.84983 40.3273 8.18861 40.2461 8.69092L39.6889 12.2655C39.6076 12.7562 39.9442 13.2234 40.4434 13.3052L41.1515 13.4104C41.639 13.5038 42.1034 13.165 42.1846 12.6627ZM41.3837 12.3824C41.3604 12.5342 41.2328 12.6627 41.0586 12.6394L40.7684 12.5926C40.5827 12.5576 40.513 12.394 40.5363 12.2422L41.047 8.97128C41.0702 8.81942 41.1863 8.67924 41.372 8.71428L41.6623 8.76101C41.848 8.79606 41.9176 8.9596 41.8944 9.11146L41.3837 12.3824Z" fill="white"/>
<path d="M47.1522 11.5064L47.454 10.1863C47.5701 9.70738 47.2683 9.20506 46.7807 9.09993L45.2252 8.73779L44.0295 13.8895L44.8421 14.0764L45.3181 12.0087L46.061 12.1839C46.5485 12.3007 47.0361 11.997 47.1522 11.5064ZM46.3744 11.1676C46.3396 11.3195 46.2119 11.448 46.0262 11.4012L45.4806 11.2727L45.852 9.64897L46.3976 9.77747C46.5718 9.81251 46.6414 9.99942 46.6066 10.1396L46.3744 11.1676Z" fill="white"/>
<path d="M50.9947 15.8169L51.6216 10.4667L50.5072 10.1162L47.965 14.859L48.7543 15.116L49.1954 14.2983L50.2982 14.6487L50.1938 15.5716L50.9947 15.8169ZM50.3911 13.8894L49.5669 13.6207L50.6233 11.6465L50.6349 11.5881L50.6697 11.5998L50.6465 11.6582L50.3911 13.8894Z" fill="white"/>
<path d="M22.8455 51.7618L22.799 51.6566C22.5552 51.131 22.4972 50.6053 22.4972 50.1146C22.4972 49.8109 22.5204 49.5072 22.5552 49.2385C22.5552 49.0983 22.5785 48.9231 22.5901 48.7712C22.3231 48.5026 22.0097 48.2222 21.6614 47.9185C21.1739 47.4979 20.6747 47.0423 20.2336 46.5751L20.0246 46.3531L19.8969 46.0611C19.8505 45.9559 19.8389 45.8625 19.7925 45.7573C16.9717 47.0657 14.7893 47.3344 13.0248 46.5867C12.0613 46.1779 10.7612 45.2433 10.0415 43.0939C9.90219 42.6967 9.84415 42.2294 9.80933 41.7505C8.70654 43.1757 8.06808 45.1499 7.89396 47.1241C7.87074 47.3461 7.85913 47.5797 7.85913 47.79C7.85913 49.9978 8.82262 51.6333 9.67003 52.6379C11.4809 54.7757 14.3714 56.0256 17.436 55.9906C19.8041 55.9555 22.1838 55.4649 24.5171 54.5537C24.192 53.9229 23.7973 53.2921 23.391 52.6379L22.8455 51.7618Z" fill="white"/>
</g>
<defs>
<clipPath id="clip0">
<rect width="62" height="58" fill="white"/>
</clipPath>
</defs>
</svg>
